<?xml version="1.0" encoding="UTF-8" standalone="no"?>
<!-- Created with Inkscape (http://www.inkscape.org/) -->

<svg
   version="1.1"
   id="svg25"
   xml:space="preserve"
   width="90.666901"
   height="167.13777"
   viewBox="0 0 90.666901 167.13777"
   sodipodi:docname="Cassie.svg"
   inkscape:version="1.1.2 (0a00cf5339, 2022-02-04)"
   xmlns:inkscape="http://www.inkscape.org/namespaces/inkscape"
   xmlns:sodipodi="http://sodipodi.sourceforge.net/DTD/sodipodi-0.dtd"
   xmlns="http://www.w3.org/2000/svg"
   xmlns:svg="http://www.w3.org/2000/svg"><defs
     id="defs29" /><sodipodi:namedview
     id="namedview27"
     pagecolor="#ffffff"
     bordercolor="#666666"
     borderopacity="1.0"
     inkscape:pageshadow="2"
     inkscape:pageopacity="0.0"
     inkscape:pagecheckerboard="0"
     showgrid="false"
     inkscape:zoom="5.2339744"
     inkscape:cx="104.2229"
     inkscape:cy="80.722596"
     inkscape:window-width="2490"
     inkscape:window-height="1536"
     inkscape:window-x="0"
     inkscape:window-y="0"
     inkscape:window-maximized="1"
     inkscape:current-layer="g33" /><g
     id="g31"
     inkscape:groupmode="layer"
     inkscape:label="CassieKinematics_v3(revised)"
     transform="matrix(1.3333333,0,0,1.3333333,-51.799668,-14.761818)"><g
       id="g33"><path
         d="m 99.982752,128.9217 c 0,4.144 -13.683,7.503 -30.566,7.503 -16.879,0 -30.567,-3.359 -30.567,-7.503 0,-4.145 13.688,-7.504 30.567,-7.504 16.883,0 30.566,3.359 30.566,7.504 z"
         style="fill:#dde1e6;fill-opacity:1;fill-rule:nonzero;stroke:none"
         id="path47" /><g
         id="g49"
         transform="scale(0.999961,1)"><path
           d="m 56.772,28.336 c -0.836,1.555 -0.66,3.187 0.441,4.816 l 1.082,-0.734 c -0.941,-1.391 -1.019,-2.25 -0.371,-3.465 z"
           style="fill:#585858;fill-opacity:1;fill-rule:nonzero;stroke:#000000;stroke-width:0.375007;stroke-linecap:butt;stroke-linejoin:miter;stroke-miterlimit:4;stroke-dasharray:none;stroke-opacity:1"
           id="path51" /></g><g
         id="g53"
         transform="scale(0.999961,1)"><path
           d="m 66.807,31.133 c 0,2.062 -1.437,3.734 -3.207,3.734 -1.769,0 -3.203,-1.672 -3.203,-3.734 0,-2.063 1.434,-3.735 3.203,-3.735 1.77,0 3.207,1.672 3.207,3.735 z"
           style="fill:#cedbe9;fill-opacity:1;fill-rule:nonzero;stroke:#000000;stroke-width:0.375007;stroke-linecap:square;stroke-linejoin:miter;stroke-miterlimit:4;stroke-dasharray:none;stroke-opacity:1"
           id="path55" /></g><g
         id="g57"
         transform="scale(0.999961,1)"><path
           d="m 59.776,29.898 c 0,0 -2.817,2.098 -4.036,4.207 -0.859,1.422 -3.34,6.247 -4.066,7.633 -0.727,1.387 -1.418,2.809 -1.352,4.426 0.067,1.617 0.231,2.543 0.727,2.973 0.492,0.429 1.519,0.496 1.519,0.496 l 1.418,-6.442 4.594,-9.183 c 0.325,-1.449 0.954,-2.578 4.227,-4.129 z"
           style="fill:#9dadbf;fill-opacity:1;fill-rule:nonzero;stroke:#000000;stroke-width:0.375007;stroke-linecap:butt;stroke-linejoin:miter;stroke-miterlimit:4;stroke-dasharray:none;stroke-opacity:1"
           id="path59" /></g><g
         id="g61"
         transform="scale(0.999961,1)"><path
           d="m 54.963,38.832 c -0.48,1.188 -2.379,5.004 -2.711,5.879 -0.328,0.875 -0.395,2.031 -0.312,2.66 0.148,1.125 2.179,2.129 2.179,2.129 l 7.153,-8.309 3.32,-9.132 -3.699,-0.829 c -1.883,0.247 -3.527,2.793 -3.824,3.305 0,0 -1.629,3.106 -2.106,4.297 z"
           style="fill:#cedbe9;fill-opacity:1;fill-rule:nonzero;stroke:#000000;stroke-width:0.375007;stroke-linecap:butt;stroke-linejoin:miter;stroke-miterlimit:4;stroke-dasharray:none;stroke-opacity:1"
           id="path63" /></g><g
         id="g65"
         transform="scale(0.999961,1)"><path
           d="m 63.467,34.785 c 0,1.961 -1.383,3.551 -3.086,3.551 -1.707,0 -3.09,-1.59 -3.09,-3.551 0,-1.965 1.383,-3.555 3.09,-3.555 1.703,0 3.086,1.59 3.086,3.555 z"
           style="fill:#cedbe9;fill-opacity:1;fill-rule:nonzero;stroke:#000000;stroke-width:0.375007;stroke-linecap:square;stroke-linejoin:miter;stroke-miterlimit:4;stroke-dasharray:none;stroke-opacity:1"
           id="path67" /></g><g
         id="g69"
         transform="scale(0.999961,1)"><path
           d="m 55.694,41.52 c -1.27,0.488 -2.094,2.019 -2.317,3.359 -0.226,1.391 0.133,3.109 1.168,4.066 1.024,0.95 2.891,1.524 4.098,0.856 1.207,-0.668 2.219,-1.774 2.277,-3.235 0.02,-1.16 0.09,-2.351 0.532,-3.109 0.445,-0.758 1.73,-2.59 2.281,-2.988 0.551,-0.395 1.887,-0.797 2.395,-1.91 0.476,-1.047 0.8,-2.684 0.586,-3.407 -0.219,-0.722 -2.758,-3.035 -2.758,-3.035 0,0 -1.118,-0.976 -2.668,-0.633 -1.235,0.278 -2.575,1.711 -2.856,3.149 -0.297,1.238 0.266,2.238 -0.008,3.305 -0.348,1.351 -1.672,3.144 -2.73,3.582 z"
           style="fill:#cedbe9;fill-opacity:1;fill-rule:nonzero;stroke:#000000;stroke-width:0.375007;stroke-linecap:butt;stroke-linejoin:miter;stroke-miterlimit:4;stroke-dasharray:none;stroke-opacity:1"
           id="path71" /></g><g
         id="g73"
         transform="scale(0.999961,1)"><path
           d="m 78.343,90.441 2.426,-9.859 0.703,0.727 -2.43,9.859 z"
           style="fill:#585858;fill-opacity:1;fill-rule:nonzero;stroke:#000000;stroke-width:0.375007;stroke-linecap:butt;stroke-linejoin:miter;stroke-miterlimit:4;stroke-dasharray:none;stroke-opacity:1"
           id="path75" /></g><g
         id="g77"
         transform="scale(0.999961,1)"><path
           d="m 76.3,90.27 2.426,-9.86 2.453,0.563 -2.43,9.855 z"
           style="fill:#585858;fill-opacity:1;fill-rule:nonzero;stroke:#000000;stroke-width:0.375007;stroke-linecap:butt;stroke-linejoin:miter;stroke-miterlimit:4;stroke-dasharray:none;stroke-opacity:1"
           id="path79" /></g><g
         id="g81"
         transform="scale(0.999961,1)"><path
           d="m 78.359,80.465 0.285,-1.406 3.195,0.894 -0.285,1.406 z"
           style="fill:#cedbe9;fill-opacity:1;fill-rule:nonzero;stroke:#000000;stroke-width:0.375007;stroke-linecap:butt;stroke-linejoin:miter;stroke-miterlimit:4;stroke-dasharray:none;stroke-opacity:1"
           id="path83" /></g><g
         id="g85"
         transform="scale(0.999961,1)"><path
           d="m 75.737,101.656 -16.883,22.746 0.906,0.532 16.88,-22.746 z"
           style="fill:#cedbe9;fill-opacity:1;fill-rule:nonzero;stroke:#000000;stroke-width:0.375007;stroke-linecap:butt;stroke-linejoin:miter;stroke-miterlimit:4;stroke-dasharray:none;stroke-opacity:1"
           id="path87" /></g><g
         id="g89"
         transform="scale(0.999961,1)"><path
           d="m 72.604,88.191 -0.922,1.161 -0.515,2.722 -0.344,2.879 c 0,0 4.68,0.121 4.774,0.11 0.093,-0.016 2.203,-7.747 2.203,-7.747 l -2.727,-5.863 c -1.363,1.281 -2.547,1.68 -4.434,1.742 l 2.012,4.063 z"
           style="fill:#cedbe9;fill-opacity:1;fill-rule:nonzero;stroke:#000000;stroke-width:0.375007;stroke-linecap:butt;stroke-linejoin:miter;stroke-miterlimit:4;stroke-dasharray:none;stroke-opacity:1"
           id="path91" /></g><g
         id="g93"
         transform="scale(0.999961,1)"><path
           d="m 56.186,115.66 1.43,0.305 18.305,-20.102 0.902,-6.621 0.7,-1.562 -2.024,-0.34 c -0.977,-0.164 -1.965,1.004 -2.148,2.598 0,0 -0.02,1.964 -0.11,3.007 -0.055,0.629 -1,1.407 -1,1.407 L 71.19,94.227 c 0.282,-1.618 0.11,-4.422 1.18,-5.551 l 0.797,-0.844 -0.512,-0.574 -0.922,1.258 c -0.91,1.246 -1.058,4.363 -1.113,4.992 -0.977,3.972 -8.996,14.949 -14.434,22.152 z"
           style="fill:#9dadbf;fill-opacity:1;fill-rule:nonzero;stroke:#000000;stroke-width:0.375007;stroke-linecap:butt;stroke-linejoin:miter;stroke-miterlimit:4;stroke-dasharray:none;stroke-opacity:1"
           id="path95" /></g><g
         id="g97"
         transform="scale(0.999961,1)"><path
           d="m 71.245,100 c 2.871,-4.113 3.317,-5.617 3.25,-10.098 0.012,-2.754 3.028,-2.953 3.656,-1.609 l 2.059,5.418 c 2.184,4.672 -2.719,9.039 -8.528,11.445 -2.25,0.93 -3.422,2.305 -5.144,4.242 l -7.079,8.559 c -0.304,-0.738 -0.734,-1.445 -1.843,-1.992 0,0 9.125,-10.559 13.629,-15.965 z"
           style="fill:#9dadbf;fill-opacity:1;fill-rule:nonzero;stroke:#000000;stroke-width:0.375007;stroke-linecap:butt;stroke-linejoin:miter;stroke-miterlimit:4;stroke-dasharray:none;stroke-opacity:1"
           id="path99" /></g><g
         id="g101"
         transform="scale(0.999961,1)"><path
           d="m 60.014,125.086 c 0,0.496 -0.402,0.898 -0.898,0.898 -0.497,0 -0.899,-0.402 -0.899,-0.898 0,-0.496 0.402,-0.898 0.899,-0.898 0.496,0 0.898,0.402 0.898,0.898 z"
           style="fill:#cedbe9;fill-opacity:1;fill-rule:nonzero;stroke:#000000;stroke-width:0.375007;stroke-linecap:square;stroke-linejoin:miter;stroke-miterlimit:4;stroke-dasharray:none;stroke-opacity:1"
           id="path103" /></g><g
         id="g105"
         transform="scale(0.999961,1)"><path
           d="m 47.787,125.738 c -1.902,0.68 -2.074,0.879 -2.266,1.207 -0.222,0.391 -0.101,0.891 0.157,1.34 7.68,-2.68 9.101,-2.523 10.465,-6.508 l -2.059,-0.3 c 0,0 -4.398,3.586 -6.297,4.261 z"
           style="fill:#cedbe9;fill-opacity:1;fill-rule:nonzero;stroke:#000000;stroke-width:0.375007;stroke-linecap:butt;stroke-linejoin:miter;stroke-miterlimit:4;stroke-dasharray:none;stroke-opacity:1"
           id="path107" /></g><g
         id="g109"
         transform="scale(0.999961,1)"><path
           d="m 56.373,115.852 -3.152,3.918 c 0,0 -0.235,0.515 -0.176,1.343 0.055,0.832 0.418,1.696 0.418,1.696 l 1.074,-0.993 c 0,0 0.2,1.18 1.039,1.11 0.844,-0.071 1.274,-0.875 1.356,-1.133 0.082,-0.258 0.164,-0.621 0.316,-0.887 0.45,-0.781 2.211,-2.949 2.211,-2.949 l -0.621,-1.84 c -0.59,-0.824 -1.265,-1.355 -2.465,-0.265 z"
           style="fill:#cedbe9;fill-opacity:1;fill-rule:nonzero;stroke:#000000;stroke-width:0.375007;stroke-linecap:butt;stroke-linejoin:miter;stroke-miterlimit:4;stroke-dasharray:none;stroke-opacity:1"
           id="path111" /></g><g
         id="g113"
         transform="scale(0.999961,1)"><path
           d="m 54.537,121.816 c 0,0 -4.398,3.582 -6.297,4.262 -1.898,0.676 -1.949,0.777 -1.949,0.777 0,0 -0.512,0.297 -0.563,0.727 -0.05,0.43 -0.414,1.254 1.438,1.238 1.852,-0.015 4.277,-1.453 6.856,-1.386 2.574,0.066 2.66,0.793 4.937,0.527 2.282,-0.266 2.625,-0.199 2.446,-1.141 -0.184,-0.941 -1.645,-1.886 -1.645,-1.886 0,0 -1.328,-0.457 -2.121,-1.317 -0.793,-0.859 -1.043,-1.504 -1.043,-1.504 l -2.059,-0.297"
           style="fill:#cedbe9;fill-opacity:1;fill-rule:nonzero;stroke:#000000;stroke-width:0.375007;stroke-linecap:butt;stroke-linejoin:miter;stroke-miterlimit:4;stroke-dasharray:none;stroke-opacity:1"
           id="path115" /></g><g
         id="g117"
         transform="scale(0.999961,1)"><path
           d="m 53.752,122.184 c 0,0 -0.301,-0.789 -0.328,-1.204 -0.023,-0.382 -0.012,-0.82 0.336,-0.914 0.234,-0.062 0.555,0.168 0.648,0.5 0.102,0.348 0.129,1.25 0.129,1.25 z"
           style="fill:#585858;fill-opacity:1;fill-rule:nonzero;stroke:#000000;stroke-width:0.375007;stroke-linecap:butt;stroke-linejoin:miter;stroke-miterlimit:4;stroke-dasharray:none;stroke-opacity:1"
           id="path119" /></g><g
         id="g121"
         transform="scale(0.999961,1)"><path
           d="m 65.319,46.328 c 0,0 0.23,1.324 -0.527,2.645 -0.762,1.32 -1.95,3.566 -1.95,3.566 l -2.578,-2.312 1.75,-5.188 z"
           style="fill:#cedbe9;fill-opacity:1;fill-rule:nonzero;stroke:#000000;stroke-width:0.375007;stroke-linecap:butt;stroke-linejoin:miter;stroke-miterlimit:4;stroke-dasharray:none;stroke-opacity:1"
           id="path123" /></g><g
         id="g125"
         transform="scale(0.999961,1)"><path
           d="m 75.073,81.453 c 0,0 -1.367,-5.129 -1.554,-5.926 C 73.331,74.734 72.116,68.52 71.604,66.84 71.089,65.156 69.686,62.168 68.565,61.141 67.444,60.109 64.967,56.375 64.549,54.879 64.128,53.383 64.268,51.98 64.268,51.98 l -3.082,-2.8 -2.242,-7.938 -1.59,0.367 -4.672,8.692 15.555,27.375 4.442,5.281 c 0,0 2.289,0.512 2.289,0.328 0,-0.187 0.105,-1.832 0.105,-1.832 z"
           style="fill:#9dadbf;fill-opacity:1;fill-rule:nonzero;stroke:#000000;stroke-width:0.375007;stroke-linecap:butt;stroke-linejoin:miter;stroke-miterlimit:4;stroke-dasharray:none;stroke-opacity:1"
           id="path127" /></g><g
         id="g129"
         transform="scale(0.999961,1)"><path
           d="m 66.655,35.063 c 0,1.964 -1.383,3.554 -3.086,3.554 -1.707,0 -3.09,-1.59 -3.09,-3.554 0,-1.961 1.383,-3.551 3.09,-3.551 1.703,0 3.086,1.59 3.086,3.551 z"
           style="fill:#cedbe9;fill-opacity:1;fill-rule:nonzero;stroke:#000000;stroke-width:0.375007;stroke-linecap:square;stroke-linejoin:miter;stroke-miterlimit:4;stroke-dasharray:none;stroke-opacity:1"
           id="path131" /></g><g
         id="g133"
         transform="scale(0.999961,1)"><path
           d="m 60.018,41.445 c -1.223,0.598 -1.91,2.196 -2.012,3.551 -0.101,1.406 0.406,3.082 1.52,3.949 1.101,0.856 3.012,1.262 4.156,0.489 1.145,-0.77 2.059,-1.961 1.989,-3.422 -0.082,-1.157 -0.118,-2.348 0.253,-3.141 0.375,-0.793 1.497,-2.734 2.012,-3.176 0.512,-0.445 1.809,-0.961 2.215,-2.113 0.383,-1.09 0.563,-2.746 0.281,-3.449 -0.277,-0.699 -3.011,-2.778 -3.011,-2.778 0,0 -2.032,-1.332 -3.106,-0.164 -1.074,1.168 -1.688,2.09 -1.875,3.352 -0.188,1.262 0.16,2.008 -0.02,3.098 -0.226,1.375 -1.386,3.277 -2.402,3.804 z"
           style="fill:#cedbe9;fill-opacity:1;fill-rule:nonzero;stroke:#000000;stroke-width:0.375007;stroke-linecap:butt;stroke-linejoin:miter;stroke-miterlimit:4;stroke-dasharray:none;stroke-opacity:1"
           id="path135" /></g><g
         id="g137"
         transform="scale(0.999961,1)"><path
           d="m 66.635,35.434 1.063,1.449 11.442,40.926 -0.121,1.339 -0.688,-1.05 -11.512,-40.586 -0.184,-2.078"
           style="fill:#cedbe9;fill-opacity:1;fill-rule:nonzero;stroke:#000000;stroke-width:0.375007;stroke-linecap:butt;stroke-linejoin:miter;stroke-miterlimit:4;stroke-dasharray:none;stroke-opacity:1"
           id="path139" /></g><g
         id="g141"
         transform="scale(0.999961,1)"><path
           d="m 67.069,35.273 c 0,0.282 -0.223,0.504 -0.5,0.504 -0.281,0 -0.504,-0.222 -0.504,-0.504 0,-0.277 0.223,-0.5 0.504,-0.5 0.277,0 0.5,0.223 0.5,0.5 z"
           style="fill:#cedbe9;fill-opacity:1;fill-rule:nonzero;stroke:#000000;stroke-width:0.375007;stroke-linecap:square;stroke-linejoin:miter;stroke-miterlimit:4;stroke-dasharray:none;stroke-opacity:1"
           id="path143" /></g><g
         id="g145"
         transform="scale(0.999961,1)"><path
           d="m 79.585,79.387 c 0,0.277 -0.226,0.504 -0.504,0.504 -0.281,0 -0.504,-0.227 -0.504,-0.504 0,-0.278 0.223,-0.504 0.504,-0.504 0.278,0 0.504,0.226 0.504,0.504 z"
           style="fill:#cedbe9;fill-opacity:1;fill-rule:nonzero;stroke:#000000;stroke-width:0.375007;stroke-linecap:square;stroke-linejoin:miter;stroke-miterlimit:4;stroke-dasharray:none;stroke-opacity:1"
           id="path147" /></g><g
         id="g149"
         transform="scale(0.999961,1)"><path
           d="m 51.279,51.258 2.43,-0.07 8.735,13.875 5.609,10.324 4.626,7.57 -2.04,0.238 -11.812,-17.734 -2.688,-4.883 z"
           style="fill:#9dadbf;fill-opacity:1;fill-rule:nonzero;stroke:#000000;stroke-width:0.375007;stroke-linecap:butt;stroke-linejoin:miter;stroke-miterlimit:4;stroke-dasharray:none;stroke-opacity:1"
           id="path151" /></g><g
         id="g153"
         transform="scale(0.999961,1)"><path
           d="m 53.709,51.188 c 0,0 -0.051,-0.961 0.246,-1.688 0.297,-0.727 2.688,-6.383 3.348,-7.117 0.559,-0.617 1.641,-1.141 1.641,-1.141 0,0 -0.067,-0.695 -0.629,-0.695 -0.563,0 -1.289,-0.098 -1.586,0.168 -0.297,0.262 -1.434,1.637 -1.981,2.441 -0.629,0.934 -3.586,7.946 -3.469,8.102 l 2.43,-0.07"
           style="fill:#9dadbf;fill-opacity:1;fill-rule:nonzero;stroke:#000000;stroke-width:0.375007;stroke-linecap:butt;stroke-linejoin:miter;stroke-miterlimit:4;stroke-dasharray:none;stroke-opacity:1"
           id="path155" /></g><g
         id="g157"
         transform="scale(0.999961,1)"><path
           d="m 58.811,127.324 c -2.324,0.301 -2.406,-0.531 -5.032,-0.605 -2.629,-0.074 -5.101,1.57 -6.984,1.59 -0.856,0.007 -1.328,-0.793 -1.414,-0.438 -0.075,0.508 -0.285,1.324 1.48,1.309 1.887,-0.02 4.36,-1.668 6.985,-1.59 2.625,0.074 2.707,0.906 5.031,0.605 2.325,-0.304 2.676,-0.226 2.493,-1.304 -0.036,-0.403 -2.067,0.371 -2.559,0.433 z"
           style="fill:#585858;fill-opacity:1;fill-rule:nonzero;stroke:#000000;stroke-width:0.375007;stroke-linecap:butt;stroke-linejoin:miter;stroke-miterlimit:4;stroke-dasharray:none;stroke-opacity:1"
           id="path159" /></g><g
         id="g161"
         transform="scale(0.999961,1)"><path
           d="m 65.553,32.254 5.254,2.723 c 0,0 5.438,0.093 7.798,0.093 1.773,0 3.222,-2.058 3.504,-4.578 0.281,-2.523 0.566,-13.129 0.566,-13.129 0,0 0.656,-2.625 -2.242,-4.3 -2.258,-1.301 -3.68,-1.68 -5.094,-1.68 0,0 -3.793,-0.223 -5.817,-0.07 -1.578,0.117 -4.648,0.816 -4.648,0.816 z"
           style="fill:#cedbe9;fill-opacity:1;fill-rule:nonzero;stroke:#000000;stroke-width:0.375007;stroke-linecap:butt;stroke-linejoin:miter;stroke-miterlimit:4;stroke-dasharray:none;stroke-opacity:1"
           id="path163" /></g><g
         id="g165"
         transform="scale(0.999961,1)"><path
           d="m 86.363,31.629 c 0,1.898 -1.078,3.434 -2.41,3.434 -1.333,0 -2.415,-1.536 -2.415,-3.434 0,-1.899 1.082,-3.438 2.415,-3.438 1.332,0 2.41,1.539 2.41,3.438 z"
           style="fill:#cedbe9;fill-opacity:1;fill-rule:nonzero;stroke:#000000;stroke-width:0.375007;stroke-linecap:square;stroke-linejoin:miter;stroke-miterlimit:4;stroke-dasharray:none;stroke-opacity:1"
           id="path167" /></g><g
         id="g169"
         transform="scale(0.999961,1)"><path
           d="m 57.705,22.973 c -1.836,0 -3.32,1.433 -3.32,3.203 0,1.769 1.508,2.871 3.152,3.312 0.012,0 3.762,0.934 3.762,0.934 0,0 0.961,-0.234 1.52,-1.121 0.562,-0.891 0.586,-1.707 0.586,-1.707 l -2.457,-2.078 c -0.325,-1.481 -1.676,-2.539 -3.243,-2.543 z"
           style="fill:#cedbe9;fill-opacity:1;fill-rule:nonzero;stroke:#000000;stroke-width:0.375007;stroke-linecap:square;stroke-linejoin:miter;stroke-miterlimit:4;stroke-dasharray:none;stroke-opacity:1"
           id="path171" /></g><g
         id="g173"
         transform="scale(0.999961,1)"><path
           d="m 61.19,16.863 c -3.215,1.731 -8.657,4.828 -9.051,8.653 -0.293,2.847 0.66,3.769 3.234,3.273 1.207,-0.234 3.934,-0.828 4.262,-1.687 0.332,-0.86 0.399,-1.586 0.793,-2.313 0.399,-0.726 2.512,-4.953 2.446,-5.98 -0.067,-1.024 -1.684,-1.946 -1.684,-1.946 z"
           style="fill:#9dadbf;fill-opacity:1;fill-rule:nonzero;stroke:#000000;stroke-width:0.375007;stroke-linecap:butt;stroke-linejoin:miter;stroke-miterlimit:4;stroke-dasharray:none;stroke-opacity:1"
           id="path175" /></g><g
         id="g177"
         transform="scale(0.999961,1)"><path
           d="m 61.698,13.531 c 0,0 1.847,-1.312 3.418,-1.359 l 7.695,-0.227 c 3.129,0.086 6.505,2.035 6.77,4.688 0.227,2.262 -0.109,5.652 -0.722,7.941 -0.668,2.481 -2.094,5.41 -3.075,7.094 -0.98,1.68 -2.211,2.258 -3.519,2.492 -1.309,0.235 -6.317,-1.008 -8.372,-2.969 C 61.838,29.23 60.397,27.125 60.295,24.93 60.209,23.031 59.756,14.051 61.698,13.531 Z"
           style="fill:#585858;fill-opacity:1;fill-rule:nonzero;stroke:#000000;stroke-width:0.375007;stroke-linecap:butt;stroke-linejoin:miter;stroke-miterlimit:4;stroke-dasharray:none;stroke-opacity:1"
           id="path179" /></g><g
         id="g181"
         transform="scale(0.999961,1)"><path
           d="m 61.698,13.531 c 0,0 9.016,-0.281 10.184,0 1.168,0.282 2.289,1.121 2.617,1.914 0.328,0.797 0.891,3.285 0.852,4.395 -0.121,3.519 -1.079,6.738 -1.981,8.293 -2.438,3.676 -7.215,5.133 -9.477,3.058 C 61.838,29.23 60.397,27.125 60.295,24.93 60.209,23.031 59.756,14.051 61.698,13.531 Z"
           style="fill:#585858;fill-opacity:1;fill-rule:nonzero;stroke:#000000;stroke-width:0.375007;stroke-linecap:butt;stroke-linejoin:miter;stroke-miterlimit:4;stroke-dasharray:none;stroke-opacity:1"
           id="path183" /></g><g
         id="g185"
         transform="scale(0.999961,1)"><path
           d="m 86.628,30.008 5.88,0.363 c 0,0 2.511,0.133 3.105,-1.055 0.594,-1.191 0.824,-2.675 0.824,-2.675 l -0.625,-2.149 -6.41,-0.133 -3.832,0.727 z"
           style="fill:#cedbe9;fill-opacity:1;fill-rule:nonzero;stroke:#000000;stroke-width:0.375007;stroke-linecap:butt;stroke-linejoin:miter;stroke-miterlimit:4;stroke-dasharray:none;stroke-opacity:1"
           id="path187" /></g><g
         id="g189"
         transform="scale(0.999961,1)"><path
           d="m 77.245,29.215 c 0,0 4.293,1.058 5.122,0.859 0.824,-0.195 4.261,-0.066 4.261,-0.066 0,0 1.551,-0.262 1.782,-0.922 0.234,-0.66 0.66,-2.148 0.66,-2.148 l -5.383,-1.75 z"
           style="fill:#cedbe9;fill-opacity:1;fill-rule:nonzero;stroke:#000000;stroke-width:0.375007;stroke-linecap:butt;stroke-linejoin:miter;stroke-miterlimit:4;stroke-dasharray:none;stroke-opacity:1"
           id="path191" /></g><g
         id="g193"
         transform="scale(0.999961,1)"><path
           d="m 72.671,27.633 c 0,0 0.23,1.055 1.203,1.105 0.977,0.051 5.485,0.61 6.196,0.364 0.711,-0.25 5.765,-2.512 5.847,-2.957 0.082,-0.446 -2.808,-3.735 -2.808,-3.735 0,0 -5.731,0.68 -5.864,0.778 -0.133,0.097 -4.574,4.445 -4.574,4.445 z"
           style="fill:#cedbe9;fill-opacity:1;fill-rule:nonzero;stroke:#000000;stroke-width:0.375007;stroke-linecap:butt;stroke-linejoin:miter;stroke-miterlimit:4;stroke-dasharray:none;stroke-opacity:1"
           id="path195" /></g><g
         id="g197"
         transform="scale(0.999961,1)"><path
           d="m 79.159,17.688 c -3.094,2.468 -5.019,5.476 -7,8.457 -0.629,0.941 -0.383,1.933 0.461,1.949 l 6.473,0.133 9.121,-4.856 7.598,1.121 0.625,-0.691 -2.676,-2.809 c -3.445,-3.617 -7.39,-5.371 -11.297,-5.156 -1.656,0.094 -2.367,1.105 -3.305,1.852 z"
           style="fill:#9dadbf;fill-opacity:1;fill-rule:nonzero;stroke:#000000;stroke-width:0.375007;stroke-linecap:butt;stroke-linejoin:miter;stroke-miterlimit:4;stroke-dasharray:none;stroke-opacity:1"
           id="path199" /></g><g
         id="g201"
         transform="scale(0.999961,1)"><path
           d="m 79.093,28.227 c 2.504,-2.274 10.032,-12.039 17.344,-4.426 v 2.84 c -1.437,-2.512 -3.898,-1.266 -7.43,-1.09 -4.699,0.23 -9.914,2.676 -9.914,2.676 z"
           style="fill:#9dadbf;fill-opacity:1;fill-rule:nonzero;stroke:#000000;stroke-width:0.375007;stroke-linecap:butt;stroke-linejoin:miter;stroke-miterlimit:4;stroke-dasharray:none;stroke-opacity:1"
           id="path203" /></g><g
         id="g211"
         transform="scale(0.999961,1)"><path
           d="m 89.988,50.324 -1.449,0.324 c 0.496,2.231 0.203,3.356 -0.352,4.071 -0.559,0.711 -1.547,1.121 -2.711,1.511 l 0.469,1.407 c 1.203,-0.403 2.519,-0.867 3.41,-2.004 0.887,-1.137 1.184,-2.836 0.633,-5.309 z"
           style="fill:#585858;fill-opacity:1;fill-rule:nonzero;stroke:#000000;stroke-width:0.375007;stroke-linecap:butt;stroke-linejoin:miter;stroke-miterlimit:4;stroke-dasharray:none;stroke-opacity:1"
           id="path213" /></g><g
         id="g215"
         transform="scale(0.999961,1)"><path
           d="m 103.371,88.363 1.422,-9.925 0.875,0.812 -1.676,11.598 z"
           style="fill:#585858;fill-opacity:1;fill-rule:nonzero;stroke:#000000;stroke-width:0.375007;stroke-linecap:butt;stroke-linejoin:miter;stroke-miterlimit:4;stroke-dasharray:none;stroke-opacity:1"
           id="path217" /></g><g
         id="g219"
         transform="scale(0.999961,1)"><path
           d="m 101.668,88.586 1.422,-9.926 2.125,0.637 -1.676,11.594 z"
           style="fill:#585858;fill-opacity:1;fill-rule:nonzero;stroke:#000000;stroke-width:0.375007;stroke-linecap:butt;stroke-linejoin:miter;stroke-miterlimit:4;stroke-dasharray:none;stroke-opacity:1"
           id="path221" /></g><g
         id="g223"
         transform="scale(0.999961,1)"><path
           d="m 105.656,79.582 0.227,-1.461 -3.063,-0.891 -0.226,1.461 z"
           style="fill:#cedbe9;fill-opacity:1;fill-rule:nonzero;stroke:#000000;stroke-width:0.375007;stroke-linecap:butt;stroke-linejoin:miter;stroke-miterlimit:4;stroke-dasharray:none;stroke-opacity:1"
           id="path225" /></g><g
         id="g227"
         transform="scale(0.999961,1)"><path
           d="m 88.961,45.902 13.754,29.989 0.105,1.339 -0.855,-0.925 -13.751,-29.676"
           style="fill:#cedbe9;fill-opacity:1;fill-rule:nonzero;stroke:#000000;stroke-width:0.375007;stroke-linecap:butt;stroke-linejoin:miter;stroke-miterlimit:4;stroke-dasharray:none;stroke-opacity:1"
           id="path229" /></g><g
         id="g231"
         transform="scale(0.999961,1)"><path
           d="m 99.578,80.207 c 0,0 -1.766,-4.633 -2.141,-5.848 -0.371,-1.214 -1.867,-6.539 -3.082,-8.41 -1.215,-1.867 -3.41,-4.625 -4.25,-5.511 -0.844,-0.887 -2.664,-3.317 -3.273,-4.157 -0.606,-0.843 -2.383,-4.207 -2.383,-4.207 L 80.573,42.031 78.937,41.703 c 0,0 -2.008,1.051 -2.289,1.801 -0.282,0.746 -1.403,3.41 -1.727,4.297 -0.328,0.887 -0.328,5.441 -0.328,5.441 l 11.539,16.867 9.813,11.446 1.274,0.312 c 1.179,0.305 1.922,-0.347 2.359,-1.66"
           style="fill:#9dadbf;fill-opacity:1;fill-rule:nonzero;stroke:#000000;stroke-width:0.375007;stroke-linecap:butt;stroke-linejoin:miter;stroke-miterlimit:4;stroke-dasharray:none;stroke-opacity:1"
           id="path233" /></g><g
         id="g235"
         transform="scale(0.999961,1)"><path
           d="m 72.55,52.637 2.406,-0.328 10.172,12.859 6.68,9.668 5.411,7.031 -2.004,0.453 -13.641,-16.367 -3.196,-4.566 z"
           style="fill:#9dadbf;fill-opacity:1;fill-rule:nonzero;stroke:#000000;stroke-width:0.375007;stroke-linecap:butt;stroke-linejoin:miter;stroke-miterlimit:4;stroke-dasharray:none;stroke-opacity:1"
           id="path237" /></g><g
         id="g239"
         transform="scale(0.999961,1)"><path
           d="m 100.039,100.047 -14.438,24.445 0.961,0.43 14.434,-24.445 z"
           style="fill:#cedbe9;fill-opacity:1;fill-rule:nonzero;stroke:#000000;stroke-width:0.375007;stroke-linecap:butt;stroke-linejoin:miter;stroke-miterlimit:4;stroke-dasharray:none;stroke-opacity:1"
           id="path241" /></g><g
         id="g243"
         transform="scale(0.999961,1)"><path
           d="m 97.461,87.301 -0.817,1.238 -0.281,2.758 -0.094,2.894 c 0,0 4.672,-0.277 4.766,-0.3 0.094,-0.024 1.762,-8.051 1.762,-8.051 l -3.219,-5.633 c -1.25,1.395 -2.488,1.891 -4.363,2.113 l 2.445,3.75 z"
           style="fill:#cedbe9;fill-opacity:1;fill-rule:nonzero;stroke:#000000;stroke-width:0.375007;stroke-linecap:butt;stroke-linejoin:miter;stroke-miterlimit:4;stroke-dasharray:none;stroke-opacity:1"
           id="path245" /></g><g
         id="g247"
         transform="scale(0.999961,1)"><path
           d="m 83.468,116.082 1.453,0.184 16.505,-21.606 0.332,-6.672 0.562,-1.621 -2.05,-0.164 c -0.985,-0.078 -1.872,1.172 -1.915,2.774 0,0 0.149,1.961 0.149,3.007 0,0.633 -0.875,1.489 -0.875,1.489 L 96.57,93.438 c 0.145,-1.633 -0.199,-4.43 0.664,-5.727 L 98.039,86.5 97.66,86.07 96.703,87.469 c -0.871,1.273 -0.762,4.668 -0.762,5.301 -0.629,4.043 -7.676,15.671 -12.473,23.312 z"
           style="fill:#9dadbf;fill-opacity:1;fill-rule:nonzero;stroke:#000000;stroke-width:0.375007;stroke-linecap:butt;stroke-linejoin:miter;stroke-miterlimit:4;stroke-dasharray:none;stroke-opacity:1"
           id="path249" /></g><g
         id="g251"
         transform="scale(0.999961,1)"><path
           d="m 97.121,99.184 c 2.512,-4.344 2.82,-5.879 2.375,-10.34 -0.23,-2.742 2.758,-3.203 3.504,-1.914 l 2.895,5.277 c 3.164,5.484 -4.172,10.145 -7.891,12.074 -2.164,1.125 -3.211,2.594 -4.758,4.672 l -6.321,9.137 c -0.367,-0.711 -0.855,-1.379 -2.004,-1.824 0,0 8.18,-11.309 12.2,-17.082 z"
           style="fill:#9dadbf;fill-opacity:1;fill-rule:nonzero;stroke:#000000;stroke-width:0.375007;stroke-linecap:butt;stroke-linejoin:miter;stroke-miterlimit:4;stroke-dasharray:none;stroke-opacity:1"
           id="path253" /></g><g
         id="g255"
         transform="scale(0.999961,1)"><path
           d="m 86.867,125.055 c 0,0.496 -0.403,0.898 -0.903,0.898 -0.496,0 -0.898,-0.402 -0.898,-0.898 0,-0.496 0.402,-0.903 0.898,-0.903 0.5,0 0.903,0.407 0.903,0.903 z"
           style="fill:#cedbe9;fill-opacity:1;fill-rule:nonzero;stroke:#000000;stroke-width:0.375007;stroke-linecap:square;stroke-linejoin:miter;stroke-miterlimit:4;stroke-dasharray:none;stroke-opacity:1"
           id="path257" /></g><g
         id="g259"
         transform="scale(0.999961,1)"><path
           d="m 78.937,41.703 c 0,0 -1.032,1.156 -1.411,2 -0.378,0.844 -0.91,2.344 -0.992,3.008 -0.082,0.66 0.031,0.988 -0.281,1.93 -0.313,0.941 -1.297,3.668 -1.297,3.668 l -2.406,0.328 2.68,-8.754 c 0.476,-1.77 2.254,-2.184 3.707,-2.18"
           style="fill:#9dadbf;fill-opacity:1;fill-rule:nonzero;stroke:#000000;stroke-width:0.375007;stroke-linecap:butt;stroke-linejoin:miter;stroke-miterlimit:4;stroke-dasharray:none;stroke-opacity:1"
           id="path261" /></g><g
         id="g263"
         transform="scale(0.999961,1)"><path
           d="m 74.519,125.656 c -1.954,0.504 -2.145,0.688 -2.364,1 -0.258,0.367 -0.18,0.875 0.039,1.344 7.887,-1.977 9.29,-1.695 11.005,-5.543 l -2.024,-0.48 c 0,0 -4.703,3.175 -6.656,3.679 z"
           style="fill:#cedbe9;fill-opacity:1;fill-rule:nonzero;stroke:#000000;stroke-width:0.375007;stroke-linecap:butt;stroke-linejoin:miter;stroke-miterlimit:4;stroke-dasharray:none;stroke-opacity:1"
           id="path265" /></g><g
         id="g267"
         transform="scale(0.999961,1)"><path
           d="m 83.671,115.906 -3.047,4 c 0,0 -0.219,0.524 -0.136,1.352 0.078,0.828 0.464,1.68 0.464,1.68 l 1.047,-1.02 c 0,0 0.231,1.172 1.071,1.082 0.84,-0.094 1.25,-0.914 1.324,-1.172 0.074,-0.258 0.144,-0.625 0.289,-0.894 0.43,-0.793 2.129,-3.008 2.129,-3.008 l -0.672,-1.824 c -0.609,-0.805 -1.301,-1.321 -2.469,-0.196 z"
           style="fill:#cedbe9;fill-opacity:1;fill-rule:nonzero;stroke:#000000;stroke-width:0.375007;stroke-linecap:butt;stroke-linejoin:miter;stroke-miterlimit:4;stroke-dasharray:none;stroke-opacity:1"
           id="path269" /></g><g
         id="g271"
         transform="scale(0.999961,1)"><path
           d="m 81.597,122.355 c 0,0 -4.703,3.172 -6.657,3.68 -1.953,0.504 -2.011,0.598 -2.011,0.598 0,0 -0.536,0.25 -0.625,0.672 -0.086,0.422 -0.524,1.215 1.32,1.363 1.844,0.148 4.391,-1.063 6.953,-0.766 2.559,0.297 2.579,1.028 4.872,0.969 2.293,-0.058 2.633,0.039 2.535,-0.918 -0.094,-0.953 -1.469,-2.027 -1.469,-2.027 0,0 -1.281,-0.574 -1.992,-1.5 -0.715,-0.926 -0.903,-1.59 -0.903,-1.59 l -2.023,-0.481"
           style="fill:#cedbe9;fill-opacity:1;fill-rule:nonzero;stroke:#000000;stroke-width:0.375007;stroke-linecap:butt;stroke-linejoin:miter;stroke-miterlimit:4;stroke-dasharray:none;stroke-opacity:1"
           id="path273" /></g><g
         id="g275"
         transform="scale(0.999961,1)"><path
           d="m 81.226,122.309 c 0,0 -0.324,-0.782 -0.36,-1.196 -0.035,-0.383 -0.039,-0.82 0.309,-0.922 0.234,-0.07 0.559,0.153 0.66,0.481 0.11,0.344 0.164,1.246 0.164,1.246 z"
           style="fill:#585858;fill-opacity:1;fill-rule:nonzero;stroke:#000000;stroke-width:0.375007;stroke-linecap:butt;stroke-linejoin:miter;stroke-miterlimit:4;stroke-dasharray:none;stroke-opacity:1"
           id="path277" /></g><g
         id="g279"
         transform="scale(0.999961,1)"><path
           d="m 83.843,30.77 c -0.832,0.835 -1.742,1.742 -2.266,3.015 -0.531,1.285 -0.421,2.688 -0.468,3.668 -0.047,0.981 0.187,1.051 -0.325,2.125 -0.398,0.832 -1.156,2.164 -1.675,3.32 -0.899,1.805 -0.875,3.344 -0.637,4.696 0.219,1.168 0.797,2.179 1.613,2.996 0.817,0.82 1.422,1.32 2.332,1.32 0.91,0 3.063,-2.383 3.063,-2.383 l 4.551,-20.144 c -2.656,-0.258 -5.379,0.578 -6.188,1.387 z"
           style="fill:#cedbe9;fill-opacity:1;fill-rule:nonzero;stroke:#000000;stroke-width:0.375007;stroke-linecap:butt;stroke-linejoin:miter;stroke-miterlimit:4;stroke-dasharray:none;stroke-opacity:1"
           id="path281" /></g><g
         id="g283"
         transform="scale(0.999961,1)"><path
           d="m 90.031,29.383 c 0,0 -2.082,-0.035 -2.942,0.262 -0.859,0.3 -1.422,0.894 -1.816,1.687 l -5.922,12.613 c 0,0 -0.43,0.926 -0.395,2.379 0,1.129 0.395,2.41 1.352,3.531 0.957,1.125 2.902,2.243 3.734,2.008 0.829,-0.23 3.973,-2.363 3.973,-2.363 z"
           style="fill:#9dadbf;fill-opacity:1;fill-rule:nonzero;stroke:#000000;stroke-width:0.375007;stroke-linecap:butt;stroke-linejoin:miter;stroke-miterlimit:4;stroke-dasharray:none;stroke-opacity:1"
           id="path285" /></g><g
         id="g287"
         transform="scale(0.999961,1)"><path
           d="m 90.031,29.383 c 0,0 -1.586,-0.668 -3.477,3.398 -1.894,4.063 -5.141,10.09 -5.445,12.473 -0.211,1.676 -0.141,2.941 0.156,3.695 0.418,1.074 1.211,2.149 2.227,2.66 3.925,2.059 6.179,1.27 7.781,-1.707 1.422,-2.757 3.199,-6.285 3.782,-8.035 0.585,-1.754 1.613,-4.953 1.66,-6.402 -0.055,-1.539 -0.5,-2.684 -1.227,-3.547 -1.211,-1.438 -3.203,-2.098 -5.457,-2.535 z"
           style="fill:#9dadbf;fill-opacity:1;fill-rule:nonzero;stroke:#000000;stroke-width:0.375007;stroke-linecap:butt;stroke-linejoin:miter;stroke-miterlimit:4;stroke-dasharray:none;stroke-opacity:1"
           id="path289" /></g><g
         id="g291"
         transform="scale(0.999961,1)"><path
           d="m 103.383,77.414 c 0,0.281 -0.223,0.504 -0.504,0.504 -0.277,0 -0.504,-0.223 -0.504,-0.504 0,-0.277 0.227,-0.5 0.504,-0.5 0.281,0 0.504,0.223 0.504,0.5 z"
           style="fill:#cedbe9;fill-opacity:1;fill-rule:nonzero;stroke:#000000;stroke-width:0.375007;stroke-linecap:square;stroke-linejoin:miter;stroke-miterlimit:4;stroke-dasharray:none;stroke-opacity:1"
           id="path293" /></g><g
         id="g295"
         transform="scale(0.999961,1)"><path
           d="m 85.386,128.543 c -2.34,0.07 -2.344,-0.766 -4.949,-1.102 -2.602,-0.336 -5.227,1.059 -7.106,0.891 -0.852,-0.074 -1.242,-0.922 -1.359,-0.578 -0.125,0.5 -0.418,1.293 1.339,1.453 1.879,0.168 4.505,-1.227 7.11,-0.891 2.602,0.336 2.606,1.172 4.946,1.102 2.34,-0.074 2.683,0.039 2.609,-1.055 0.008,-0.402 -2.094,0.164 -2.59,0.18 z"
           style="fill:#585858;fill-opacity:1;fill-rule:nonzero;stroke:#000000;stroke-width:0.375007;stroke-linecap:butt;stroke-linejoin:miter;stroke-miterlimit:4;stroke-dasharray:none;stroke-opacity:1"
           id="path297" /></g></g></g></svg>
