<?xml version="1.0" encoding="UTF-8" standalone="no"?>
<svg
   id="Layer_1"
   data-name="Layer 1"
   width="160"
   height="160"
   viewBox="0 0 160 160"
   version="1.1"
   sodipodi:docname="gitlab.svg"
   inkscape:version="1.1.2 (0a00cf5339, 2022-02-04)"
   xmlns:inkscape="http://www.inkscape.org/namespaces/inkscape"
   xmlns:sodipodi="http://sodipodi.sourceforge.net/DTD/sodipodi-0.dtd"
   xmlns="http://www.w3.org/2000/svg"
   xmlns:svg="http://www.w3.org/2000/svg">
  <sodipodi:namedview
     id="namedview15"
     pagecolor="#ffffff"
     bordercolor="#666666"
     borderopacity="1.0"
     inkscape:pageshadow="2"
     inkscape:pageopacity="0.0"
     inkscape:pagecheckerboard="0"
     showgrid="false"
     inkscape:zoom="7.568421"
     inkscape:cx="-7.2009736"
     inkscape:cy="78.417942"
     inkscape:window-width="3770"
     inkscape:window-height="2096"
     inkscape:window-x="70"
     inkscape:window-y="27"
     inkscape:window-maximized="1"
     inkscape:current-layer="Layer_1" />
  <defs
     id="defs4">
    <style
       id="style2">
      .cls-1 {
        fill: #fca326;
      }

      .cls-2 {
        fill: #fc6d26;
      }

      .cls-3 {
        fill: #e24329;
      }
    </style>
  </defs>
  <path
     class="cls-3"
     d="m 155.63292,64.324908 -0.2134,-0.55822 -21.19899,-55.3090805 c -0.4236,-1.08359 -1.18542,-1.99642 -2.17699,-2.62689 -0.98837,-0.63373 -2.14749,-0.93253 -3.32305,-0.87014 -1.1689,0.0624 -2.29195,0.48925 -3.20809,1.21821 -0.90957,0.73554 -1.56629,1.73047 -1.87493,2.85346 L 109.3242,52.838868 H 51.414554 L 37.101284,9.0322475 c -0.30864,-1.12299 -0.96536,-2.11791 -1.87493,-2.85346 -0.91614,-0.72895 -2.03911,-1.15582 -3.20809,-1.21821 -1.17548,-0.0624 -2.33468,0.23641 -3.32297,0.87014 -0.99166,0.63047 -1.75348,1.5433 -2.17707,2.62689 L 5.3193144,63.769978 l -0.21348,0.55493 c -6.28158,16.38521 -0.92929,34.90803 13.0589096,45.487822 0.0262,0.0164 0.0492,0.0361 0.0755,0.0558 l 0.18719,0.14119 32.29094,24.17392 15.97151,12.09024 9.71951,7.34871 c 2.34117,1.77316 5.57877,1.77316 7.92002,0 l 9.71943,-7.34871 15.968216,-12.09024 32.48142,-24.31511 c 0.0296,-0.023 0.0559,-0.0427 0.0854,-0.0657 13.97834,-10.579772 19.32735,-29.096042 13.04905,-45.477962 z"
     id="path6" />
  <path
     class="cls-2"
     d="m 155.63292,64.324908 -0.2134,-0.55822 c -10.5174,2.16062 -20.20405,6.6099 -28.49844,12.81593 -0.1346,0.0985 -25.20497,19.05805 -46.551706,35.196992 15.84998,11.98517 29.647696,22.40405 29.647696,22.40405 l 32.48142,-24.31511 c 0.0296,-0.023 0.0559,-0.0427 0.0854,-0.0657 13.97834,-10.579772 19.32735,-29.096042 13.04905,-45.477962 z"
     id="path8" />
  <path
     class="cls-1"
     d="m 50.718384,134.18365 15.97151,12.09024 9.71951,7.34871 c 2.34117,1.77316 5.57877,1.77316 7.92002,0 l 9.71943,-7.34871 15.968216,-12.09024 c 0,0 -13.797716,-10.41888 -29.647696,-22.40405 -15.85327,11.98517 -29.65099,22.40405 -29.65099,22.40405 z"
     id="path10" />
  <path
     class="cls-2"
     d="m 33.814374,76.582618 c -8.29111,-6.20274 -17.97446,-10.65531 -28.4950696,-12.81264 l -0.21348,0.55493 c -6.28158,16.38521 -0.92929,34.90803 13.0589096,45.487822 0.0262,0.0164 0.0492,0.0361 0.0755,0.0558 l 0.18719,0.14119 32.29094,24.17392 c 0,0 13.79772,-10.41888 29.65099,-22.40405 C 59.022624,95.640648 33.949044,76.681108 33.814364,76.582598 Z"
     id="path12" />
</svg>
