<?xml version="1.0" encoding="UTF-8" standalone="no"?>
<!-- Created with Inkscape (http://www.inkscape.org/) -->

<svg
   version="1.1"
   id="svg447"
   xml:space="preserve"
   width="126.00705"
   height="94.931183"
   viewBox="0 0 126.00705 94.931183"
   sodipodi:docname="vision60_2.svg"
   inkscape:version="1.1.2 (0a00cf5339, 2022-02-04)"
   xmlns:inkscape="http://www.inkscape.org/namespaces/inkscape"
   xmlns:sodipodi="http://sodipodi.sourceforge.net/DTD/sodipodi-0.dtd"
   xmlns="http://www.w3.org/2000/svg"
   xmlns:svg="http://www.w3.org/2000/svg"><defs
     id="defs451"><clipPath
       clipPathUnits="userSpaceOnUse"
       id="clipPath489"><path
         d="M 0,0 H 469 V 127 H 0 Z"
         id="path487" /></clipPath><clipPath
       clipPathUnits="userSpaceOnUse"
       id="clipPath921"><path
         d="M 0,0 H 469 V 127 H 0 Z"
         id="path919" /></clipPath><clipPath
       clipPathUnits="userSpaceOnUse"
       id="clipPath937"><path
         d="M 0,0 H 469 V 127 H 0 Z"
         id="path935" /></clipPath><clipPath
       clipPathUnits="userSpaceOnUse"
       id="clipPath1361"><path
         d="M 0,0 H 469 V 127 H 0 Z"
         id="path1359" /></clipPath><clipPath
       clipPathUnits="userSpaceOnUse"
       id="clipPath1793"><path
         d="M 0,0 H 469 V 127 H 0 Z"
         id="path1791" /></clipPath><clipPath
       clipPathUnits="userSpaceOnUse"
       id="clipPath1809"><path
         d="M 0,0 H 469 V 127 H 0 Z"
         id="path1807" /></clipPath><clipPath
       clipPathUnits="userSpaceOnUse"
       id="clipPath489-3"><path
         d="M 0,0 H 469 V 127 H 0 Z"
         id="path487-6" /></clipPath><clipPath
       clipPathUnits="userSpaceOnUse"
       id="clipPath921-7"><path
         d="M 0,0 H 469 V 127 H 0 Z"
         id="path919-5" /></clipPath><clipPath
       clipPathUnits="userSpaceOnUse"
       id="clipPath937-3"><path
         d="M 0,0 H 469 V 127 H 0 Z"
         id="path935-5" /></clipPath></defs><sodipodi:namedview
     id="namedview449"
     pagecolor="#ffffff"
     bordercolor="#666666"
     borderopacity="1.0"
     inkscape:pageshadow="2"
     inkscape:pageopacity="0.0"
     inkscape:pagecheckerboard="0"
     showgrid="false"
     inkscape:zoom="3.2273079"
     inkscape:cx="-121.15361"
     inkscape:cy="76.999161"
     inkscape:window-width="1245"
     inkscape:window-height="1536"
     inkscape:window-x="20"
     inkscape:window-y="20"
     inkscape:window-maximized="0"
     inkscape:current-layer="g455" /><g
     id="g453"
     inkscape:groupmode="layer"
     inkscape:label="algorithm-plan-v2"
     transform="matrix(1.3333333,0,0,1.3333333,-480.91558,-36.462668)"><g
       id="g455"><ellipse
         style="fill:#8fc7f3;fill-opacity:1;stroke-width:0.749996"
         id="path9232"
         cx="415.56409"
         cy="29.062641"
         rx="47.650303"
         ry="12.740104"
         transform="matrix(0.99100921,0.1337937,-0.13379672,0.9910088,0,0)" /><g
         id="g515"
         transform="matrix(-1,-0.37329,-0.373521,0.999873,824.07304,0)"><path
           d="m 352.254,167.221 c 10e-4,0.532 -1.704,0.966 -3.809,0.965 -2.102,0.001 -3.807,-0.433 -3.808,-0.964 -10e-4,-0.532 1.706,-0.961 3.808,-0.962 2.102,0 3.808,0.43 3.809,0.961 z"
           style="fill:#616161;fill-opacity:1;fill-rule:nonzero;stroke:#000000;stroke-width:0.351324;stroke-linecap:butt;stroke-linejoin:round;stroke-miterlimit:4;stroke-dasharray:none;stroke-opacity:1"
           id="path517" /></g><g
         id="g915"
         transform="matrix(-1,0,0,1,824.07304,0)"><g
           id="g917" /><g
           id="g929"><g
             clip-path="url(#clipPath921)"
             opacity="0.5"
             id="g927"><g
               id="g925"><path
                 d="m 430.988,75.984 c -0.816,-0.019 -1.609,0.266 -2.465,0.067 -1.148,-0.242 -2.128,0.281 -3.242,0.383 -1.414,0.164 1.211,2.73 1.664,2.836 2.055,0.445 2.914,-0.715 4.649,-0.442 -0.114,0.274 -0.172,0.563 -0.172,0.86 0,0.05 0.004,0.101 0.008,0.152 -3.778,0.609 -6.606,-0.055 -10.586,0.586 -4.547,0.965 -9.215,1.562 -13.664,2.847 -3.516,0.836 -6.153,0.665 -9.223,0.997 -2.508,-0.461 -4.41,1.574 -6.906,1.496 -2.504,-0.008 -4.899,0.66 -7.18,1.492 -2.879,1.144 1.426,0.363 2.414,0.39 1.836,0.02 3.625,-0.062 5.399,-0.136 l 3.211,-0.102 c 2.043,-0.027 4.097,0.043 6.21,0.379 2.817,0.508 5.688,0.418 8.54,0.512 2.718,0.265 5.394,-0.395 8.105,-0.219 2.707,0.391 5.23,-0.809 7.934,-0.574 2.609,0.211 5.207,-0.395 7.804,-0.09 1.934,0.797 3.629,-0.734 4.567,-2.148 2.289,-1.356 -0.153,-2.094 1.582,-3.997 2.011,-1.382 -0.153,-2.433 -2.016,-1.753 -0.734,0.089 -1.254,0.101 -1.676,0.078 -0.007,-0.211 -0.047,-0.418 -0.113,-0.618 1.449,-0.023 3.547,0.18 4.758,0.504 1.211,0.407 2.465,0.188 3.683,0.536 1.184,0.328 2.422,0.343 3.59,0.707 0.825,0.492 1.723,0.066 2.266,-0.387 1.16,-0.301 0.383,-0.957 1.328,-1.52 1.035,-0.34 0.082,-1.207 -0.828,-1.121 -1.301,-0.133 -0.66,-0.094 -1.965,-0.129 -2.027,-0.058 -4.016,-0.586 -6.043,-0.73 -2.164,-0.063 -4.355,-0.277 -6.5,-0.211 -1.68,-0.012 -2.875,-0.328 -4.312,-0.496 -0.278,-0.106 -0.551,-0.145 -0.821,-0.149 z"
                 style="fill:#555555;fill-opacity:1;fill-rule:nonzero;stroke:none"
                 id="path923" /></g></g></g></g><g
         id="g931"
         transform="matrix(-1,0,0,1,824.07304,0)"><g
           id="g933" /><g
           id="g945"><g
             clip-path="url(#clipPath937)"
             opacity="0.5"
             id="g943"><g
               id="g941"><path
                 d="m 395.75,82.836 c -0.941,0.102 -2.008,0.312 -2.937,0.254 -1.184,-0.113 1.335,-1.32 1.691,-1.438 1.621,-0.511 4.316,-0.687 5.832,-0.894 1.285,-0.172 2.812,-0.586 3.754,-0.485 1.191,-0.031 2.887,-0.304 3.832,-0.66 0.871,0 8.234,2.477 -3.254,2.481 -5.355,0.769 -5.129,0.34 -8.918,0.742 z"
                 style="fill:#555555;fill-opacity:1;fill-rule:nonzero;stroke:none"
                 id="path939" /></g></g></g></g><g
         id="g947"
         transform="matrix(-1,0,0,0.999953,824.07304,0)"><path
           d="m 389.578,48.467 -3.433,-4.582 0.511,-0.422 3.532,4.371 0.441,0.817 -0.402,0.277 z"
           style="fill:#363636;fill-opacity:1;fill-rule:nonzero;stroke:#000000;stroke-width:0.375004;stroke-linecap:butt;stroke-linejoin:miter;stroke-miterlimit:4;stroke-dasharray:none;stroke-opacity:1"
           id="path949" /></g><g
         id="g955"
         transform="matrix(-1,0,0,0.999953,824.07304,0)"><path
           d="m 374.184,68.706 -0.348,3.543 2.953,-0.574 0.738,-1.25 0.696,-1.844 z"
           style="fill:#0b170b;fill-opacity:1;fill-rule:nonzero;stroke:#000000;stroke-width:0.375009;stroke-linecap:butt;stroke-linejoin:miter;stroke-miterlimit:4;stroke-dasharray:none;stroke-opacity:1"
           id="path957" /></g><g
         id="g959"
         transform="matrix(-1,0,0,0.999953,824.07304,0)"><path
           d="m 395.859,63.827 -0.699,3.856 h 2.34 l 0.758,-0.985 0.922,-2.297 z"
           style="fill:#0b170b;fill-opacity:1;fill-rule:nonzero;stroke:#000000;stroke-width:0.375009;stroke-linecap:butt;stroke-linejoin:miter;stroke-miterlimit:4;stroke-dasharray:none;stroke-opacity:1"
           id="path961" /></g><g
         id="g963"
         transform="matrix(-1,0,0,0.999953,824.07304,0)"><path
           d="m 392.98,46.295 0.368,1.867 7.465,-4.687 -0.356,-1.957 0.391,-0.61 -0.114,-0.394 -8.418,5.207 0.129,0.375 z"
           style="fill:#8cef8c;fill-opacity:1;fill-rule:nonzero;stroke:#000000;stroke-width:0.375009;stroke-linecap:butt;stroke-linejoin:round;stroke-miterlimit:4;stroke-dasharray:none;stroke-opacity:1"
           id="path965" /></g><g
         id="g967"
         transform="matrix(-1,0,0,0.999953,824.07304,0)"><path
           d="m 397.609,37.209 2.036,4.508 -3.887,2.66 -2.242,-6.141 z"
           style="fill:#5a5a5a;fill-opacity:1;fill-rule:nonzero;stroke:#000000;stroke-width:0.375009;stroke-linecap:butt;stroke-linejoin:miter;stroke-miterlimit:4;stroke-dasharray:none;stroke-opacity:1"
           id="path969" /></g><g
         id="g971"
         transform="matrix(-1,0,0,0.999953,824.07304,0)"><path
           d="m 393.535,38.244 -4.57,3.356 2.355,5.949 4.442,-3.145 z"
           style="fill:#474747;fill-opacity:1;fill-rule:nonzero;stroke:#000000;stroke-width:0.375004;stroke-linecap:butt;stroke-linejoin:miter;stroke-miterlimit:4;stroke-dasharray:none;stroke-opacity:1"
           id="path973" /></g><g
         id="g975"
         transform="matrix(-1,0,0,0.999953,824.07304,0)"><path
           d="m 397.223,37.756 c -0.078,0.019 -0.153,0.047 -0.219,0.086 l -1.242,0.859 c -0.555,0.32 -0.614,1.246 -0.137,2.07 0.477,0.825 1.309,1.235 1.863,0.915 l 1.242,-0.86 c 0.551,-0.32 0.61,-1.246 0.133,-2.07 -0.406,-0.707 -1.093,-1.125 -1.64,-1 z"
           style="fill:#363636;fill-opacity:1;fill-rule:nonzero;stroke:#000000;stroke-width:0.375004;stroke-linecap:butt;stroke-linejoin:miter;stroke-miterlimit:4;stroke-dasharray:none;stroke-opacity:1"
           id="path977" /></g><g
         id="g979"
         transform="matrix(0.9991,0.580054,-0.578448,1,824.07304,0)"><path
           d="m -280.062,202.365 c 0.001,0.824 -0.447,1.49 -0.998,1.489 -0.555,0.002 -1,-0.666 -1,-1.49 0,-0.824 0.445,-1.493 0.997,-1.492 0.554,-0.002 1.001,0.669 1.001,1.493 z"
           style="fill:#484848;fill-opacity:1;fill-rule:nonzero;stroke:#000000;stroke-width:0.324601;stroke-linecap:butt;stroke-linejoin:miter;stroke-miterlimit:4;stroke-dasharray:none;stroke-opacity:1"
           id="path981" /></g><g
         id="g983"
         transform="matrix(-1,0,0,0.999953,824.07304,0)"><path
           d="m 390.066,47.205 0.368,1.872 7.468,-4.692 -0.355,-1.953 0.391,-0.61 -0.118,-0.398 -8.414,5.211 0.125,0.371 z"
           style="fill:#595959;fill-opacity:1;fill-rule:nonzero;stroke:#000000;stroke-width:0.375009;stroke-linecap:butt;stroke-linejoin:miter;stroke-miterlimit:4;stroke-dasharray:none;stroke-opacity:1"
           id="path985" /></g><g
         id="g987"
         transform="matrix(-1,0,0,0.999953,824.07304,0)"><path
           d="m 390.094,40.877 c -0.621,0.144 -0.946,1.016 -0.727,1.941 0.219,0.926 0.899,1.559 1.52,1.415 l 1.636,-0.372 c 0.622,-0.148 0.946,-1.015 0.727,-1.945 -0.219,-0.926 -0.898,-1.559 -1.52,-1.41 z"
           style="fill:#5a5a5a;fill-opacity:1;fill-rule:nonzero;stroke:#000000;stroke-width:0.375009;stroke-linecap:butt;stroke-linejoin:miter;stroke-miterlimit:4;stroke-dasharray:none;stroke-opacity:1"
           id="path989" /></g><g
         id="g991"
         transform="matrix(-1,-0.235932,-0.236248,0.999881,824.07304,0)"><path
           d="m 361.472,127.583 c -10e-4,0.93 -0.502,1.679 -1.124,1.681 -0.62,-0.002 -1.122,-0.754 -1.122,-1.679 0,-0.926 0.502,-1.679 1.122,-1.677 0.622,-0.002 1.124,0.749 1.124,1.675 z"
           style="fill:#484848;fill-opacity:1;fill-rule:nonzero;stroke:#000000;stroke-width:0.364987;stroke-linecap:butt;stroke-linejoin:miter;stroke-miterlimit:4;stroke-dasharray:none;stroke-opacity:1"
           id="path993" /></g><g
         id="g995"
         transform="matrix(-1,0,0,0.999953,824.07304,0)"><path
           d="m 397.816,41.412 2.93,-0.867 0.137,0.414 -2.953,0.898 -0.094,-0.386 z"
           style="fill:#6f6f6f;fill-opacity:1;fill-rule:nonzero;stroke:#000000;stroke-width:0.375009;stroke-linecap:butt;stroke-linejoin:round;stroke-miterlimit:4;stroke-dasharray:none;stroke-opacity:1"
           id="path997" /></g><g
         id="g999"
         transform="matrix(-1,0,0,0.999953,824.07304,0)"><path
           d="m 418.754,32.209 0.211,0.875 1.746,-0.793 -0.211,-0.997 z"
           style="fill:#373737;fill-opacity:1;fill-rule:nonzero;stroke:#000000;stroke-width:0.375009;stroke-linecap:butt;stroke-linejoin:miter;stroke-miterlimit:4;stroke-dasharray:none;stroke-opacity:1"
           id="path1001" /></g><g
         id="g1003"
         transform="matrix(-1,0,0,0.999953,824.07304,0)"><path
           d="m 421.992,31.193 0.203,0.691 -1.476,0.399 -0.203,-0.992 z"
           style="fill:#6f6f6f;fill-opacity:1;fill-rule:nonzero;stroke:#000000;stroke-width:0.375009;stroke-linecap:butt;stroke-linejoin:miter;stroke-miterlimit:4;stroke-dasharray:none;stroke-opacity:1"
           id="path1005" /></g><g
         id="g1007"
         transform="matrix(1,0.579088,-0.579706,0.99961,824.07304,0)"><path
           d="m -279.975,202.017 c 0.002,0.617 -0.335,1.121 -0.753,1.121 -0.415,-0.002 -0.752,-0.503 -0.753,-1.124 10e-4,-0.618 0.337,-1.117 0.753,-1.12 0.415,0.002 0.752,0.502 0.753,1.123 z"
           style="fill:#8ce6ef;fill-opacity:1;fill-rule:nonzero;stroke:#000000;stroke-width:0.324519;stroke-linecap:butt;stroke-linejoin:miter;stroke-miterlimit:4;stroke-dasharray:none;stroke-opacity:1"
           id="path1009" /></g><g
         id="g1011"
         transform="matrix(-1,-0.235932,-0.236248,0.999881,824.07304,0)"><path
           d="m 361.328,127.647 c -10e-4,0.699 -0.38,1.262 -0.849,1.261 -0.465,0.003 -0.847,-0.563 -0.847,-1.259 0,-0.695 0.38,-1.262 0.849,-1.261 0.468,0.002 0.847,0.564 0.847,1.259 z"
           style="fill:#8ce6ef;fill-opacity:1;fill-rule:nonzero;stroke:#000000;stroke-width:0.364987;stroke-linecap:butt;stroke-linejoin:miter;stroke-miterlimit:4;stroke-dasharray:none;stroke-opacity:1"
           id="path1013" /></g><g
         id="g1015"
         transform="matrix(-1,0,0,0.999953,824.07304,0)"><path
           d="m 428.813,57.194 c -0.512,1.301 -0.36,2.328 -1.122,4.043 l 1.922,-0.246 c 0.215,-1.699 0.504,-2.758 0.86,-3.981 z"
           style="fill:#0b170b;fill-opacity:1;fill-rule:nonzero;stroke:#000000;stroke-width:0.375009;stroke-linecap:butt;stroke-linejoin:miter;stroke-miterlimit:4;stroke-dasharray:none;stroke-opacity:1"
           id="path1017" /></g><g
         id="g1019"
         transform="matrix(-1,-0.118707,-0.118793,0.999272,824.07304,0)"><path
           d="m 415.814,108.372 -1.818,0.144 -0.002,0.016 c 0.402,-0.101 0.893,0.145 1.477,0.722 0.849,0.84 1.399,1.797 2.387,2.36 0,0 8.8,4.845 12.78,7.874 1.067,0.811 2.108,1.689 2.944,2.734 0.331,0.411 0.8,1.362 0.8,1.362 l 0.065,0.078 1.325,-0.605 c 0,0 -0.234,-0.857 -0.705,-1.202 -5.002,-3.823 -10.46,-7.407 -15.791,-10.468 -0.596,-0.344 -1.056,-0.845 -1.487,-1.365 -0.632,-0.923 -0.837,-1.436 -1.975,-1.65 z"
           style="fill:#7f7f7f;fill-opacity:1;fill-rule:nonzero;stroke:#000000;stroke-width:0.37252;stroke-linecap:butt;stroke-linejoin:miter;stroke-miterlimit:4;stroke-dasharray:none;stroke-opacity:1"
           id="path1021" /></g><g
         id="g1023"
         transform="matrix(-1,-0.118707,-0.118793,0.999272,824.07304,0)"><path
           d="m 415.471,109.254 c 0.849,0.84 1.399,1.797 2.387,2.36 0,0 8.8,4.845 12.784,7.874 1.063,0.811 2.104,1.689 2.94,2.734 0.331,0.411 0.8,1.362 0.8,1.362 l -3.928,1.038 c 0,0 -0.394,-0.797 -0.512,-1.222 -0.208,-0.748 0.17,-1.719 -0.34,-2.299 -3.242,-3.681 -8.107,-5.803 -12.437,-8.252 -0.827,-0.47 -1.899,-0.558 -2.574,-1.225 -0.668,-0.658 -1.727,-1.667 -1.243,-2.52 0.484,-0.85 1.186,-0.778 2.123,0.15 z"
           style="fill:#595959;fill-opacity:1;fill-rule:nonzero;stroke:#000000;stroke-width:0.37252;stroke-linecap:butt;stroke-linejoin:miter;stroke-miterlimit:4;stroke-dasharray:none;stroke-opacity:1"
           id="path1025" /></g><g
         id="g1027"
         transform="matrix(-1,-0.118707,-0.118793,0.999272,824.07304,0)"><path
           d="m 430.505,124.679 c 0.002,0.247 0.048,0.49 0.134,0.72 0.414,1.081 1.65,1.595 2.769,1.185 0.539,-0.198 1.788,-1.27 1.373,-2.351 -0.086,-0.229 -0.217,-0.44 -0.379,-0.623 z"
           style="fill:#483e37;fill-opacity:1;fill-rule:nonzero;stroke:#000000;stroke-width:0.37252;stroke-linecap:butt;stroke-linejoin:miter;stroke-miterlimit:4;stroke-dasharray:none;stroke-opacity:1"
           id="path1029" /></g><g
         id="g1031"
         transform="matrix(-1,-0.118707,-0.118793,0.999272,824.07304,0)"><path
           d="m 435.803,123.026 -0.003,-10e-4 -1.353,0.637 c 0.003,0.004 0.01,0.013 0.013,0.017 0.004,0.004 0.007,0.009 0.014,0.017 0.006,0.009 0.017,0.022 0.023,0.03 0.011,0.013 0.017,0.022 0.028,0.035 0.003,0.008 0.009,0.017 0.016,0.025 0,0 0,0 0.003,0.005 0,0 0,0 0.004,0.004 0.007,0.009 0.013,0.021 0.019,0.034 0.004,0 0.004,0 0.004,0 0.023,0.034 0.043,0.068 0.066,0.106 -10e-4,0.003 0.003,0.004 0.007,0.008 0.003,0.008 0.009,0.017 0.012,0.025 0,0.004 0,0.004 0,0.004 0.01,0.009 0.017,0.022 0.023,0.034 0.013,0.025 0.025,0.05 0.034,0.074 0.013,0.025 0.026,0.05 0.038,0.075 0.003,0.012 0.009,0.025 0.011,0.037 0,0 0.004,0 0.004,0.004 0.006,0.013 0.009,0.025 0.015,0.037 0.406,1.057 -0.777,2.105 -1.332,2.336 -0.013,0.01 -0.026,0.02 -0.039,0.03 l 2.018,-1.108 c 0.653,-0.333 0.941,-1.312 0.754,-1.842 -0.089,-0.229 -0.217,-0.44 -0.379,-0.623 z"
           style="fill:#231f1b;fill-opacity:1;fill-rule:nonzero;stroke:#000000;stroke-width:0.37252;stroke-linecap:butt;stroke-linejoin:miter;stroke-miterlimit:4;stroke-dasharray:none;stroke-opacity:1"
           id="path1033" /></g><g
         id="g1035"
         transform="matrix(-1,0,0,0.999953,824.07304,0)"><path
           d="m 426.973,61.577 c 0.91,-0.363 0.785,-2.523 1.238,-3.832 1.855,-5.332 4.523,-9.844 6.656,-14.376 0.227,-0.484 0.227,-1.59 0.227,-1.59 l -3.586,0.539 c 0,0 -0.977,1.098 -2.297,3.477 -1.449,2.61 -2.832,5.356 -3.738,8.137 -0.453,1.395 -0.692,2.895 -0.629,4.36 0.062,1.5 0.234,4.043 2.129,3.285 z"
           style="fill:#595959;fill-opacity:1;fill-rule:nonzero;stroke:#000000;stroke-width:0.375009;stroke-linecap:butt;stroke-linejoin:miter;stroke-miterlimit:4;stroke-dasharray:none;stroke-opacity:1"
           id="path1037" /></g><g
         id="g1039"
         transform="matrix(-1,0,0,0.999953,824.07304,0)"><path
           d="m 435.09,41.014 -0.543,0.847 0.547,-0.082 c 0,0 0,1.106 -0.227,1.59 -2.133,4.536 -4.801,9.044 -6.656,14.376 -0.426,1.227 -0.34,3.207 -1.082,3.746 v 0.059 l 0.496,-0.168 c 0.84,-1.801 0.66,-2.852 1.188,-4.188 l 1.66,-0.184 c -0.219,0.747 -0.41,1.43 -0.575,2.235 l 0.329,0.379 c 0.257,-1.281 0.707,-3.176 1.289,-4.403 0.953,-2 3.359,-6.848 3.859,-7.84 0.441,-0.879 2.137,-4.785 2.137,-4.785 l 0.355,-1.832 z"
           style="fill:#373737;fill-opacity:1;fill-rule:nonzero;stroke:#000000;stroke-width:0.375009;stroke-linecap:butt;stroke-linejoin:miter;stroke-miterlimit:4;stroke-dasharray:none;stroke-opacity:1"
           id="path1041" /></g><g
         id="g1043"
         transform="matrix(-1,0,0,0.999953,824.07304,0)"><path
           d="m 396.113,66.558 c 0.856,2.769 3.305,4.082 5.274,5.77 2.683,2.308 5.183,4.812 6.828,7.133 l -2.977,1.199 c -0.429,-1.355 0.871,-1.664 -0.351,-2.969 -1.133,-1.207 -2.297,-2.504 -3.418,-3.57 -2.274,-2.164 -4.492,-3.946 -6.77,-6.055 0.637,-0.043 0.981,-0.758 1.414,-1.508 z"
           style="fill:#595959;fill-opacity:1;fill-rule:nonzero;stroke:#000000;stroke-width:0.375009;stroke-linecap:butt;stroke-linejoin:miter;stroke-miterlimit:4;stroke-dasharray:none;stroke-opacity:1"
           id="path1045" /></g><g
         id="g1047"
         transform="matrix(-1,-0.118707,-0.118872,0.999934,824.07304,0)"><path
           d="m 381.835,111.931 c 0.002,0.477 -0.267,0.863 -0.599,0.863 -0.332,0 -0.602,-0.388 -0.6,-0.864 -0.002,-0.477 0.267,-0.867 0.599,-0.867 0.332,10e-4 0.603,0.388 0.6,0.868 z"
           style="fill:#8cef8c;fill-opacity:1;fill-rule:nonzero;stroke:#000000;stroke-width:0.372394;stroke-linecap:butt;stroke-linejoin:miter;stroke-miterlimit:4;stroke-dasharray:none;stroke-opacity:1"
           id="path1049" /></g><g
         id="g1051"
         transform="matrix(-1,0,0,0.999953,824.07304,0)"><path
           d="m 396.121,66.511 v 0.066 c 0.859,2.758 3.305,4.067 5.266,5.751 2.676,2.301 5.172,4.801 6.816,7.117 l 1.754,-0.336 c 0,0 -0.187,-0.59 -0.773,-1.117 -0.59,-0.531 -6.094,-5.817 -7.2,-6.762 -1.105,-0.949 -2.734,-2.492 -3.242,-3.176 -0.504,-0.688 -0.902,-1.703 -0.902,-1.703 z"
           style="fill:#7f7f7f;fill-opacity:1;fill-rule:nonzero;stroke:#000000;stroke-width:0.375009;stroke-linecap:butt;stroke-linejoin:miter;stroke-miterlimit:4;stroke-dasharray:none;stroke-opacity:1"
           id="path1053" /></g><g
         id="g1055"
         transform="matrix(-1,0,0,0.999953,824.07304,0)"><path
           d="m 400.75,59.421 -5.41,2.351 -0.379,0.039 c -0.227,0.489 -0.508,1.106 -0.664,1.516 -0.289,0.762 -0.922,2.7 -0.688,3.84 0.176,0.867 1.008,0.821 1.008,0.821 0,0 0.039,0.046 0.219,0.054 0.527,-0.121 0.848,-0.738 1.227,-1.394 0.011,-0.035 0.027,-0.067 0.039,-0.102 0.273,-0.687 0.972,-1.871 1.453,-2.672 0.84,-1.395 2.383,-3.418 3.195,-4.453 z"
           style="fill:#595959;fill-opacity:1;fill-rule:nonzero;stroke:#000000;stroke-width:0.375009;stroke-linecap:butt;stroke-linejoin:miter;stroke-miterlimit:4;stroke-dasharray:none;stroke-opacity:1"
           id="path1057" /></g><g
         id="g1059"
         transform="matrix(-1,0,0,0.999953,824.07304,0)"><path
           d="m 405.855,57.198 -5.105,2.223 c -0.809,1.031 -2.352,3.051 -3.195,4.453 -0.2,0.332 -0.438,0.735 -0.668,1.137 l 1.933,-0.047 -0.8,1.801 c 0.05,0.113 0.113,0.242 0.183,0.383 0.129,-0.301 1.086,-2.504 1.801,-3.532 1.422,-2.051 4.617,-5.219 5.851,-6.418 z"
           style="fill:#373737;fill-opacity:1;fill-rule:nonzero;stroke:#000000;stroke-width:0.375009;stroke-linecap:butt;stroke-linejoin:miter;stroke-miterlimit:4;stroke-dasharray:none;stroke-opacity:1"
           id="path1061" /></g><g
         id="g1063"
         transform="matrix(-1,0,0,0.999953,824.07304,0)"><path
           d="m 425.645,29.787 -9.372,4.207 -22.714,12.145 -9.098,5.828 c -3.918,3.043 1.566,8.626 4.062,10.536 l 42.27,-19.298 z"
           style="fill:#595959;fill-opacity:1;fill-rule:nonzero;stroke:#000000;stroke-width:0.375009;stroke-linecap:butt;stroke-linejoin:miter;stroke-miterlimit:4;stroke-dasharray:none;stroke-opacity:1"
           id="path1065" /></g><g
         id="g1067"
         transform="matrix(-1,0,0,0.999953,824.07304,0)"><path
           d="m 393.855,46.791 c -0.515,5.524 2.454,9.844 3.567,11.095 l -8.715,4.101 c 0,0 -3.129,-3.055 -3.5,-4.453 -0.375,-1.402 -0.273,-5.086 -0.273,-5.086 l 8.597,-5.477 z"
           style="fill:#6f6f6f;fill-opacity:1;fill-rule:nonzero;stroke:#000000;stroke-width:0.375009;stroke-linecap:butt;stroke-linejoin:miter;stroke-miterlimit:4;stroke-dasharray:none;stroke-opacity:1"
           id="path1069" /></g><g
         id="g1071"
         transform="matrix(-1,0,0,0.999953,824.07304,0)"><path
           d="m 424.832,31.283 4.672,11.5 -31.277,14.724 c -2.957,-4.004 -3.797,-7.313 -3.75,-11.052 l 2.371,-1.285 c 0.007,0.024 0.019,0.047 0.027,0.07 0.117,0.231 0.344,0.356 0.508,0.274 0.16,-0.082 0.199,-0.336 0.082,-0.567 -0.016,-0.031 -0.035,-0.058 -0.051,-0.086 l 3.066,-1.668 c 0.012,0.047 0.032,0.094 0.051,0.141 0.117,0.231 0.344,0.356 0.508,0.274 0.16,-0.083 0.195,-0.336 0.078,-0.567 -0.023,-0.055 -0.054,-0.101 -0.094,-0.141 l 3.102,-1.687 c 0.008,0.074 0.027,0.144 0.063,0.215 0.117,0.234 0.343,0.355 0.503,0.273 0.164,-0.082 0.2,-0.336 0.082,-0.566 -0.035,-0.074 -0.085,-0.145 -0.144,-0.196 l 3.148,-1.711 c -0.004,0.098 0.02,0.2 0.067,0.293 0.117,0.235 0.344,0.356 0.504,0.274 0.164,-0.082 0.199,-0.336 0.082,-0.567 -0.051,-0.101 -0.125,-0.187 -0.207,-0.238 l 3.195,-1.738 z"
           style="fill:#6f6f6f;fill-opacity:1;fill-rule:nonzero;stroke:#000000;stroke-width:0.375009;stroke-linecap:butt;stroke-linejoin:miter;stroke-miterlimit:4;stroke-dasharray:none;stroke-opacity:1"
           id="path1073" /></g><g
         id="g1075"
         transform="matrix(-1,0,0,0.999953,824.07304,0)"><path
           d="m 432.457,38.846 c -0.176,0.027 -0.332,0.07 -0.461,0.125 -0.226,0.089 -0.379,0.214 -0.461,0.371 l -0.281,0.988 c -0.191,0.59 0.59,1.481 2.07,2.274 1.981,1.058 4.485,1.55 5.594,1.097 0.238,-0.097 0.395,-0.234 0.473,-0.402 l 0.277,-0.981 c 0.164,-0.586 -0.617,-1.468 -2.082,-2.25 -1.707,-0.914 -3.856,-1.426 -5.129,-1.222 z"
           style="fill:#333333;fill-opacity:1;fill-rule:nonzero;stroke:#000000;stroke-width:0.375009;stroke-linecap:butt;stroke-linejoin:miter;stroke-miterlimit:4;stroke-dasharray:none;stroke-opacity:1"
           id="path1077" /></g><g
         id="g1079"
         transform="matrix(-1,0,0,0.999953,824.07304,0)"><path
           d="m 432.566,36.908 c -0.191,0.031 -0.363,0.078 -0.507,0.137 -0.297,0.121 -0.481,0.297 -0.547,0.515 l -0.383,1.649 c -0.152,0.644 0.691,1.598 2.289,2.453 2.176,1.164 4.922,1.703 6.141,1.207 0.328,-0.133 0.519,-0.332 0.562,-0.582 l 0.352,-1.531 c 0.215,-0.641 -0.629,-1.625 -2.274,-2.504 -1.875,-1.004 -4.234,-1.567 -5.633,-1.344 z"
           style="fill:#333333;fill-opacity:1;fill-rule:nonzero;stroke:#000000;stroke-width:0.375009;stroke-linecap:butt;stroke-linejoin:miter;stroke-miterlimit:4;stroke-dasharray:none;stroke-opacity:1"
           id="path1081" /></g><g
         id="g1083"
         transform="matrix(-1,0,0,0.999953,824.07304,0)"><path
           d="m 433.453,35.99 c -0.16,0.023 -0.305,0.062 -0.43,0.113 -1.105,0.219 -1.07,0.559 -1.46,1.332 -0.352,0.637 0.492,1.68 2.23,2.61 2.172,1.164 4.922,1.703 6.137,1.211 0.3,-0.125 0.484,-0.301 0.55,-0.52 0.172,-1.058 -0.25,-1.765 -0.41,-2.078 -0.25,-0.477 -0.894,-1.027 -1.84,-1.535 -1.589,-0.848 -3.589,-1.324 -4.777,-1.133 z"
           style="fill:#5a5a5a;fill-opacity:1;fill-rule:nonzero;stroke:#000000;stroke-width:0.375009;stroke-linecap:butt;stroke-linejoin:miter;stroke-miterlimit:4;stroke-dasharray:none;stroke-opacity:1"
           id="path1085" /></g><g
         id="g1087"
         transform="matrix(-1,0,0,0.999953,824.07304,0)"><path
           d="m 433.699,35.349 c -0.164,0.028 -0.308,0.067 -0.429,0.118 -0.176,0.07 -0.305,0.164 -0.387,0.277 l -0.313,0.769 c -0.199,0.547 0.535,1.391 1.922,2.133 1.844,0.981 4.172,1.442 5.207,1.02 0.207,-0.086 0.352,-0.203 0.426,-0.344 l 0.289,-0.746 c 0.145,-0.551 -0.586,-1.367 -1.937,-2.09 -1.594,-0.848 -3.594,-1.324 -4.778,-1.137 z"
           style="fill:#333333;fill-opacity:1;fill-rule:nonzero;stroke:#000000;stroke-width:0.375009;stroke-linecap:butt;stroke-linejoin:miter;stroke-miterlimit:4;stroke-dasharray:none;stroke-opacity:1"
           id="path1089" /></g><g
         id="g1091"
         transform="matrix(-1,0,0,0.999953,824.07304,0)"><path
           d="m 434.07,33.314 c -0.183,0.031 -0.347,0.074 -0.484,0.129 -0.273,0.113 -0.445,0.27 -0.516,0.465 l -0.5,1.32 c -0.23,0.614 0.582,1.571 2.176,2.426 2.09,1.117 4.731,1.633 5.899,1.16 0.277,-0.113 0.453,-0.277 0.523,-0.48 l 0.469,-1.246 c 0.304,-0.614 -0.508,-1.602 -2.157,-2.485 -1.8,-0.961 -4.066,-1.504 -5.41,-1.289 z"
           style="fill:#333333;fill-opacity:1;fill-rule:nonzero;stroke:#000000;stroke-width:0.375009;stroke-linecap:butt;stroke-linejoin:miter;stroke-miterlimit:4;stroke-dasharray:none;stroke-opacity:1"
           id="path1093" /></g><g
         id="g1095"
         transform="matrix(-1,0,0,0.999953,824.07304,0)"><path
           d="m 436.328,31.669 c -1.551,0.227 -2.926,0.481 -3.086,2.02 -0.051,0.594 0.731,1.43 2.145,2.188 2.023,1.082 4.582,1.586 5.715,1.125 0.273,-0.114 0.437,-0.27 0.503,-0.461 0.559,-1.59 -0.468,-3.321 -1.828,-4.055 -1.148,-0.61 -2.593,-0.953 -3.449,-0.817 z"
           style="fill:#5a5a5a;fill-opacity:1;fill-rule:nonzero;stroke:#000000;stroke-width:0.375009;stroke-linecap:butt;stroke-linejoin:miter;stroke-miterlimit:4;stroke-dasharray:none;stroke-opacity:1"
           id="path1097" /></g><g
         id="g1099"
         transform="matrix(-0.952891,0.506516,1,0.40567,824.07304,0)"><path
           d="m 238.332,-213.392 c 0.003,0.699 -1.057,1.262 -2.362,1.265 -1.31,-0.002 -2.368,-0.569 -2.367,-1.263 -0.002,-0.701 1.059,-1.264 2.364,-1.267 1.31,0.002 2.368,0.569 2.365,1.265 z"
           style="fill:#aeaeae;fill-opacity:1;fill-rule:nonzero;stroke:#000000;stroke-width:0.396818;stroke-linecap:butt;stroke-linejoin:miter;stroke-miterlimit:4;stroke-dasharray:none;stroke-opacity:1"
           id="path1101" /></g><g
         id="g1103"
         transform="matrix(-1,0,0,0.999953,824.07304,0)"><path
           d="m 387.93,51.127 c -0.168,0.012 -0.332,0.047 -0.485,0.106 -1.179,0.449 -1.609,2.098 -0.957,3.688 0.575,1.402 1.805,2.285 2.899,2.16 l 3.082,-0.367 c 0.121,-0.02 0.238,-0.047 0.351,-0.094 1.184,-0.445 1.614,-2.098 0.961,-3.684 -0.562,-1.367 -1.75,-2.242 -2.824,-2.168 z"
           style="fill:#363636;fill-opacity:1;fill-rule:nonzero;stroke:#000000;stroke-width:0.375004;stroke-linecap:butt;stroke-linejoin:miter;stroke-miterlimit:4;stroke-dasharray:none;stroke-opacity:1"
           id="path1105" /></g><g
         id="g1107"
         transform="matrix(-1,-0.379465,-0.406646,0.989219,824.07304,0)"><path
           d="m 319.084,176.275 c 10e-4,1.603 -0.957,2.902 -2.138,2.903 -1.183,0 -2.139,-1.298 -2.14,-2.902 0.001,-1.606 0.959,-2.905 2.139,-2.907 1.183,0.004 2.139,1.302 2.139,2.906 z"
           style="fill:#4d4d4d;fill-opacity:1;fill-rule:nonzero;stroke:#000000;stroke-width:0.350677;stroke-linecap:butt;stroke-linejoin:miter;stroke-miterlimit:4;stroke-dasharray:none;stroke-opacity:1"
           id="path1109" /></g><g
         id="g1111"
         transform="matrix(-1,0,0,0.999953,824.07304,0)"><path
           d="m 383.934,50.346 -4.301,-5.735 0.64,-0.527 4.43,5.469 0.555,1.02 -0.508,0.347 z"
           style="fill:#363636;fill-opacity:1;fill-rule:nonzero;stroke:#000000;stroke-width:0.375004;stroke-linecap:butt;stroke-linejoin:miter;stroke-miterlimit:4;stroke-dasharray:none;stroke-opacity:1"
           id="path1113" /></g><g
         id="g1115"
         transform="matrix(-1,0,0,0.999953,824.07304,0)"><path
           d="m 397.016,51.928 1.496,4.758 16.64,-7.899 -1.57,-5.156 -4.562,2.406 -0.657,-2.344 -0.332,0.168 0.301,1.11 -0.324,0.156 -0.309,-1.098 -0.332,0.168 0.317,1.086 -0.325,0.157 -0.324,-1.075 -0.332,0.168 0.332,1.063 -0.324,0.16 -0.34,-1.059 -0.332,0.168 0.352,1.047 -0.325,0.157 -0.359,-1.036 -0.332,0.168 0.367,1.024 -0.324,0.156 -0.375,-1.012 -0.332,0.168 0.742,2.059 c 0,0 -1.871,0.934 -1.871,0.84 -0.004,-0.094 -0.609,-1.742 -0.609,-1.742 l -3.325,1.683 0.555,1.864 z"
           style="fill:#4d4d4d;fill-opacity:1;fill-rule:nonzero;stroke:#000000;stroke-width:0.375004;stroke-linecap:butt;stroke-linejoin:miter;stroke-miterlimit:4;stroke-dasharray:none;stroke-opacity:1"
           id="path1117" /></g><g
         id="g1119"
         transform="matrix(-1,0,0,0.999953,824.07304,0)"><path
           d="m 416.414,37.123 c -1.254,0.16 -2.059,1.664 -1.797,3.359 0.262,1.696 1.492,2.938 2.746,2.782 l 1.789,-0.215 c 1.254,-0.156 2.059,-1.66 1.797,-3.356 -0.261,-1.695 -1.492,-2.941 -2.746,-2.781 z"
           style="fill:#363636;fill-opacity:1;fill-rule:nonzero;stroke:#000000;stroke-width:0.375004;stroke-linecap:butt;stroke-linejoin:miter;stroke-miterlimit:4;stroke-dasharray:none;stroke-opacity:1"
           id="path1121" /></g><g
         id="g1123"
         transform="matrix(-1,-0.126966,-0.153952,0.996156,824.07304,0)"><path
           d="m 405.042,91.681 c -10e-4,1.702 -1.014,3.083 -2.268,3.084 -1.257,-0.004 -2.272,-1.38 -2.272,-3.082 10e-4,-1.702 1.018,-3.082 2.272,-3.083 1.253,0.003 2.268,1.379 2.268,3.081 z"
           style="fill:#4d4d4d;fill-opacity:1;fill-rule:nonzero;stroke:#000000;stroke-width:0.372088;stroke-linecap:butt;stroke-linejoin:miter;stroke-miterlimit:4;stroke-dasharray:none;stroke-opacity:1"
           id="path1125" /></g><g
         id="g1127"
         transform="matrix(-1,0,0,0.999953,824.07304,0)"><path
           d="m 422.578,34.9 c -0.301,0.024 -0.582,0.117 -0.828,0.281 l -2.387,1.071 c -1.144,0.758 -1.34,2.777 -0.429,4.516 0.906,1.734 2.574,2.523 3.718,1.769 l 2.387,-1.074 c 1.149,-0.754 1.34,-2.778 0.434,-4.512 -0.688,-1.309 -1.84,-2.129 -2.895,-2.051 z"
           style="fill:#363636;fill-opacity:1;fill-rule:nonzero;stroke:#000000;stroke-width:0.375004;stroke-linecap:butt;stroke-linejoin:miter;stroke-miterlimit:4;stroke-dasharray:none;stroke-opacity:1"
           id="path1129" /></g><g
         id="g1131"
         transform="matrix(-0.942156,-0.621711,-0.523569,1,824.07304,0)"><path
           d="m 320.374,236.129 c -0.001,1.734 -0.986,3.141 -2.205,3.141 -1.219,0 -2.207,-1.408 -2.206,-3.141 -0.002,-1.735 0.987,-3.141 2.205,-3.141 1.219,0 2.205,1.406 2.206,3.141 z"
           style="fill:#363636;fill-opacity:1;fill-rule:nonzero;stroke:#000000;stroke-width:0.333063;stroke-linecap:butt;stroke-linejoin:miter;stroke-miterlimit:4;stroke-dasharray:none;stroke-opacity:1"
           id="path1133" /></g><g
         id="g1135"
         transform="matrix(-1,0,0,0.999953,824.07304,0)"><path
           d="m 424.277,34.213 c -0.156,0.011 -0.308,0.043 -0.453,0.097 l -1.261,0.563 c -0.11,0.043 -0.219,0.097 -0.321,0.168 -1.082,0.711 -1.265,2.617 -0.41,4.254 0.856,1.637 2.43,2.387 3.512,1.672 l 1.254,-0.563 c 1.082,-0.715 1.265,-2.621 0.41,-4.258 -0.649,-1.234 -1.735,-2.008 -2.731,-1.933 z"
           style="fill:#4d4d4d;fill-opacity:1;fill-rule:nonzero;stroke:#000000;stroke-width:0.375004;stroke-linecap:butt;stroke-linejoin:miter;stroke-miterlimit:4;stroke-dasharray:none;stroke-opacity:1"
           id="path1137" /></g><g
         id="g1139"
         transform="matrix(-0.942006,-0.621809,-0.523415,1,824.07304,0)"><path
           d="m 321.972,236.349 c -10e-4,1.636 -0.933,2.963 -2.082,2.964 -1.149,0 -2.08,-1.325 -2.082,-2.963 0.001,-1.636 0.933,-2.963 2.082,-2.963 1.149,-0.001 2.079,1.324 2.082,2.962 z"
           style="fill:#363636;fill-opacity:1;fill-rule:nonzero;stroke:#000000;stroke-width:0.333088;stroke-linecap:butt;stroke-linejoin:miter;stroke-miterlimit:4;stroke-dasharray:none;stroke-opacity:1"
           id="path1141" /></g><g
         id="g1143"
         transform="matrix(-1,0,0,0.999953,824.07304,0)"><path
           d="m 383.652,59.409 -6.886,8.782 c -0.403,0.515 -0.727,0.949 -0.996,1.336 l 2.128,-0.446 -0.824,1.981 c 0.074,0.133 0.153,0.266 0.235,0.391 l 1.007,-2.606 c 0.235,-0.68 0.649,-1.149 1.071,-1.684 l 5.758,-7.273 z"
           style="fill:#373737;fill-opacity:1;fill-rule:nonzero;stroke:#000000;stroke-width:0.375009;stroke-linecap:butt;stroke-linejoin:miter;stroke-miterlimit:4;stroke-dasharray:none;stroke-opacity:1"
           id="path1145" /></g><g
         id="g1147"
         transform="matrix(-1,0,0,0.999953,824.07304,0)"><path
           d="m 437.813,41.893 -6.586,1.175 h -0.489 l 0.055,0.137 -42.242,19.286 6.789,-0.719 41.961,-18.254 c 0.683,-0.403 0.609,-0.813 0.512,-1.625 z"
           style="fill:#373737;fill-opacity:1;fill-rule:nonzero;stroke:#000000;stroke-width:0.375009;stroke-linecap:butt;stroke-linejoin:miter;stroke-miterlimit:4;stroke-dasharray:none;stroke-opacity:1"
           id="path1149" /></g><g
         id="g1151"
         transform="matrix(-1,-0.118707,-0.118793,0.999272,824.07304,0)"><path
           d="m 414.942,87.035 c 0.854,2.943 2.183,4.313 3.292,5.762 0.115,0.15 0.479,0.377 0.759,0.383 l 6.794,0.162 c 0.554,0 0.794,-0.273 1.016,-0.661 l 1.459,-2.391 c 0.158,-0.274 0.29,-0.595 0.26,-1.036 l -0.51,-7.875 c -0.048,-0.713 -1.269,-2.109 -2.351,-2.371 -0.266,-0.09 -0.528,-0.121 -0.809,-0.123 l -6.606,-0.034 c -0.46,-0.004 -0.893,0.026 -1.233,0.119 -3.768,0.713 -2.579,6.222 -2.071,8.065 z"
           style="fill:#595959;fill-opacity:1;fill-rule:nonzero;stroke:#000000;stroke-width:0.37252;stroke-linecap:butt;stroke-linejoin:miter;stroke-miterlimit:4;stroke-dasharray:none;stroke-opacity:1"
           id="path1153" /></g><g
         id="g1155"
         transform="matrix(-1,-0.118707,-0.118793,0.999272,824.07304,0)"><path
           d="m 419.611,79.658 -0.662,0.015 c 0,0 -1.352,0.175 -1.758,0.432 -0.634,0.402 -0.928,0.941 -0.677,2.148 l 1.798,8.274 c 0.168,0.626 0.622,2.236 2.366,2.056 l 0.289,-0.005 c -1.428,-0.08 -1.823,-1.491 -1.977,-2.068 l -1.802,-8.271 c -0.247,-1.21 0.043,-1.746 0.68,-2.147 0.402,-0.254 1.707,-0.427 1.743,-0.434 z"
           style="fill:#373737;fill-opacity:1;fill-rule:nonzero;stroke:#000000;stroke-width:0.37252;stroke-linecap:butt;stroke-linejoin:miter;stroke-miterlimit:4;stroke-dasharray:none;stroke-opacity:1"
           id="path1157" /></g><g
         id="g1159"
         transform="matrix(-1,-0.118707,-0.118793,0.999272,824.07304,0)"><path
           d="m 418.99,90.51 -1.802,-8.271 c -0.248,-1.206 0.043,-1.746 0.68,-2.147 0.406,-0.257 1.755,-0.437 1.755,-0.437 l 4.399,-0.13 c 0.531,10e-4 1.888,-0.049 1.888,2.582 l 0.357,7.227 c 0.054,1.12 -0.16,3.182 -1.251,3.131 l -3.661,0.101 c -1.747,0.179 -2.197,-1.43 -2.365,-2.056 z"
           style="fill:#595959;fill-opacity:1;fill-rule:nonzero;stroke:#000000;stroke-width:0.37252;stroke-linecap:butt;stroke-linejoin:miter;stroke-miterlimit:4;stroke-dasharray:none;stroke-opacity:1"
           id="path1161" /></g><g
         id="g1163"
         transform="matrix(-1,-0.118707,-0.118793,0.999272,824.07304,0)"><path
           d="m 420.627,87.683 0.604,2.706 c 0,0 0.113,0.592 1.04,0.518 l 0.772,-0.056 c 1.016,-0.001 1.073,-0.745 1.01,-1.299 l -0.402,-3.484 c -0.089,-1.191 0.1,-1.407 0.428,-1.439 l 0.32,-0.028 c 0.618,-0.001 0.785,0.992 0.948,1.786 0.177,0.845 0.693,3.08 0.693,3.08 0,0 0.15,1.464 0.76,1.423 0.382,-0.021 0.836,-0.025 1.104,-0.052 0.471,-0.046 0.768,-0.769 0.698,-1.661 -0.075,-0.982 -0.374,-2.937 -0.374,-2.937 l -0.949,-5.988 -1.298,-1.237 -6.218,0.055 0.262,5.723 z"
           style="fill:#6f6f6f;fill-opacity:1;fill-rule:nonzero;stroke:#000000;stroke-width:0.37252;stroke-linecap:butt;stroke-linejoin:miter;stroke-miterlimit:4;stroke-dasharray:none;stroke-opacity:1"
           id="path1165" /></g><g
         id="g1167"
         transform="matrix(-1,-0.118707,-0.118793,0.999272,824.07304,0)"><path
           d="m 420.747,78.057 -1.053,0.184 c -1.28,0.446 -1.982,1.359 -1.601,3.312 l 1.111,4.983 c 0.154,0.679 0.467,1.072 1.124,0.865 l 1.29,-0.496 c -0.527,0.063 -0.785,-0.296 -0.924,-0.903 l -1.112,-4.98 c -0.363,-1.872 0.011,-2.524 1.165,-2.965 z"
           style="fill:#373737;fill-opacity:1;fill-rule:nonzero;stroke:#000000;stroke-width:0.37252;stroke-linecap:butt;stroke-linejoin:miter;stroke-miterlimit:4;stroke-dasharray:none;stroke-opacity:1"
           id="path1169" /></g><g
         id="g1171"
         transform="matrix(-1,-0.118707,-0.118793,0.999272,824.07304,0)"><path
           d="m 419.582,81.022 c -0.346,-1.792 -0.023,-2.465 1.018,-2.908 0.167,-0.059 0.33,-0.117 0.534,-0.128 l 0.283,-0.01 c 0,0 0.851,2.861 1.067,4.333 0.033,0.219 -0.119,0.702 -0.638,0.702 -0.488,-0.003 -0.296,0.782 -0.296,0.782 l 0.443,2.418 c 0.042,0.236 0.074,0.591 -0.176,0.659 -0.665,0.175 -0.97,-0.189 -1.123,-0.868 z"
           style="fill:#595959;fill-opacity:1;fill-rule:nonzero;stroke:#000000;stroke-width:0.37252;stroke-linecap:butt;stroke-linejoin:miter;stroke-miterlimit:4;stroke-dasharray:none;stroke-opacity:1"
           id="path1173" /></g><g
         id="g1175"
         transform="matrix(-1,-0.415383,-0.415686,0.999272,824.07304,0)"><path
           d="m 356.525,179.35 c -10e-4,0.434 -0.208,0.781 -0.466,0.783 -0.258,-0.001 -0.465,-0.349 -0.464,-0.783 -0.001,-0.43 0.206,-0.778 0.465,-0.78 0.257,0.002 0.464,0.35 0.465,0.78 z"
           style="fill:#8ce6ef;fill-opacity:1;fill-rule:nonzero;stroke:#000000;stroke-width:0.346403;stroke-linecap:butt;stroke-linejoin:miter;stroke-miterlimit:4;stroke-dasharray:none;stroke-opacity:1"
           id="path1177" /></g><g
         id="g1179"
         transform="matrix(-1,-0.118707,-0.118793,0.999272,824.07304,0)"><path
           d="m 425.434,78.192 0.59,4.045 c 0.088,0.64 0.472,1.084 0.924,1.068 l 0.344,-0.002 c 0.244,-0.018 0.299,0.078 0.356,0.39 l 0.514,2.903 c 0.09,0.265 0.159,0.507 0.629,0.395 l 0.257,-0.059 c 0.362,0.015 0.228,-0.571 0.173,-0.863 l -0.949,-5.167 c -0.365,-1.361 -1.637,-2.728 -2.838,-2.71 z"
           style="fill:#595959;fill-opacity:1;fill-rule:nonzero;stroke:#000000;stroke-width:0.37252;stroke-linecap:butt;stroke-linejoin:miter;stroke-miterlimit:4;stroke-dasharray:none;stroke-opacity:1"
           id="path1181" /></g><g
         id="g1183"
         transform="matrix(-1,-0.415383,-0.415686,0.999272,824.07304,0)"><path
           d="m 361.628,180.936 c 0,0.43 -0.207,0.778 -0.465,0.78 -0.258,-0.002 -0.465,-0.35 -0.465,-0.78 0,-0.434 0.207,-0.782 0.466,-0.783 0.257,0.001 0.464,0.349 0.464,0.783 z"
           style="fill:#8ce6ef;fill-opacity:1;fill-rule:nonzero;stroke:#000000;stroke-width:0.346403;stroke-linecap:butt;stroke-linejoin:miter;stroke-miterlimit:4;stroke-dasharray:none;stroke-opacity:1"
           id="path1185" /></g><g
         id="g1187"
         transform="matrix(-1,-0.118707,-0.118793,0.999272,824.07304,0)"><path
           d="m 425.446,78.193 h -0.004 c 0,0 0.004,0 0.004,0 z m -0.012,0.002 -1.028,0.465 0.558,3.979 c 0.067,0.422 0.135,0.708 0.664,0.826 l 0.989,0.223 c 0.193,0.05 0.239,0.094 0.273,0.333 l 0.448,2.966 c 0.072,0.215 0.078,0.462 0.538,0.47 l 1.008,-0.134 0.297,-0.422 c -0.034,0.023 -0.079,0.033 -0.133,0.031 l -0.257,0.059 c -0.47,0.112 -0.539,-0.13 -0.629,-0.395 l -0.514,-2.903 c -0.057,-0.312 -0.112,-0.408 -0.356,-0.39 l -0.344,0.002 c -0.452,0.016 -0.836,-0.428 -0.924,-1.068 z"
           style="fill:#373737;fill-opacity:1;fill-rule:nonzero;stroke:#000000;stroke-width:0.37252;stroke-linecap:butt;stroke-linejoin:miter;stroke-miterlimit:4;stroke-dasharray:none;stroke-opacity:1"
           id="path1189" /></g><g
         id="g1191"
         transform="matrix(-0.996465,-0.419975,-0.410024,1,824.07304,0)"><path
           d="m 356.627,189.388 c 0.003,0.278 -0.129,0.504 -0.294,0.505 -0.164,-0.002 -0.296,-0.226 -0.294,-0.506 -0.003,-0.279 0.129,-0.504 0.293,-0.502 0.165,-0.001 0.295,0.225 0.295,0.503 z"
           style="fill:#ffffff;fill-opacity:1;fill-rule:nonzero;stroke:#000000;stroke-width:0.346885;stroke-linecap:butt;stroke-linejoin:miter;stroke-miterlimit:4;stroke-dasharray:none;stroke-opacity:1"
           id="path1193" /></g><g
         id="g1195"
         transform="matrix(-0.996465,-0.419975,-0.410024,1,824.07304,0)"><path
           d="m 357.708,189.58 c 0.003,0.279 -0.129,0.504 -0.294,0.505 -0.164,-0.002 -0.295,-0.225 -0.295,-0.502 -0.002,-0.282 0.134,-0.507 0.294,-0.506 0.165,-0.001 0.295,0.226 0.295,0.503 z"
           style="fill:#ffffff;fill-opacity:1;fill-rule:nonzero;stroke:#000000;stroke-width:0.346885;stroke-linecap:butt;stroke-linejoin:miter;stroke-miterlimit:4;stroke-dasharray:none;stroke-opacity:1"
           id="path1197" /></g><g
         id="g1199"
         transform="matrix(-0.996465,-0.419975,-0.410024,1,824.07304,0)"><path
           d="m 360.893,190.585 c 0,0.278 -0.133,0.503 -0.294,0.506 -0.164,-0.002 -0.296,-0.226 -0.297,-0.508 0,-0.277 0.132,-0.503 0.296,-0.5 0.162,-0.003 0.295,0.225 0.295,0.502 z"
           style="fill:#ffffff;fill-opacity:1;fill-rule:nonzero;stroke:#000000;stroke-width:0.346885;stroke-linecap:butt;stroke-linejoin:miter;stroke-miterlimit:4;stroke-dasharray:none;stroke-opacity:1"
           id="path1201" /></g><g
         id="g1203"
         transform="matrix(-0.996465,-0.419975,-0.410024,1,824.07304,0)"><path
           d="m 361.857,190.776 c 0,0.277 -0.132,0.503 -0.296,0.5 -0.162,0.003 -0.295,-0.225 -0.295,-0.502 10e-4,-0.278 0.133,-0.503 0.294,-0.506 0.164,0.003 0.296,0.226 0.297,0.508 z"
           style="fill:#ffffff;fill-opacity:1;fill-rule:nonzero;stroke:#000000;stroke-width:0.346885;stroke-linecap:butt;stroke-linejoin:miter;stroke-miterlimit:4;stroke-dasharray:none;stroke-opacity:1"
           id="path1205" /></g><g
         id="g1207"
         transform="matrix(-1,0,0,0.999953,824.07304,0)"><path
           d="m 376.289,70.261 c -0.074,0.008 -0.148,0.024 -0.23,0.043 -0.329,0.086 -1.555,0.512 -1.555,0.512 -0.082,0.117 0.582,0.363 0.519,0.492 0.09,0.207 0.137,0.488 0.133,0.84 -0.004,0.937 -0.281,1.781 -0.019,2.641 0,0 2.426,7.527 2.98,11.414 0.153,1.039 0.238,2.102 0.09,3.153 -0.055,0.39 -0.34,1.117 -0.367,1.183 l 2.14,-0.582 c 0,0 0.321,-0.797 0.375,-1.207 0.149,-1.051 0.059,-2.113 -0.089,-3.152 -0.555,-3.883 -2.981,-11.415 -2.981,-11.415 -0.262,-0.859 0.012,-1.703 0.02,-2.641 0.004,-0.937 -0.321,-1.371 -1.016,-1.281 z"
           style="fill:#7f7f7f;fill-opacity:1;fill-rule:nonzero;stroke:#000000;stroke-width:0.375009;stroke-linecap:butt;stroke-linejoin:miter;stroke-miterlimit:4;stroke-dasharray:none;stroke-opacity:1"
           id="path1209" /></g><g
         id="g1211"
         transform="matrix(-1,0,0,0.999953,824.07304,0)"><path
           d="m 376.84,90.086 c 0.098,0.403 0.351,0.77 0.726,1.012 l -1.211,0.246 0.422,0.567 2.215,-0.606 v -0.008 c 0.328,-0.078 0.629,-0.254 0.781,-0.582 0.079,-0.168 0.106,-0.504 0.122,-0.691 L 379.848,89.993 379.836,90 c 0,0.008 -0.004,0.02 -0.004,0.024 l -0.027,-0.02 -1.965,0.535 c 0,0 -0.008,0.024 -0.008,0.024 z"
           style="fill:#231f1b;fill-opacity:1;fill-rule:nonzero;stroke:#000000;stroke-width:0.375009;stroke-linecap:butt;stroke-linejoin:miter;stroke-miterlimit:4;stroke-dasharray:none;stroke-opacity:1"
           id="path1213" /></g><g
         id="g1215"
         transform="matrix(-1,0,0,0.999953,824.07304,0)"><path
           d="m 375.059,89.137 c -0.129,0.145 -0.407,0.449 -0.477,0.629 -0.336,0.848 0.125,1.789 1.016,2.133 0.429,0.168 1.75,0.191 2.086,-0.656 0.07,-0.18 0.078,-0.532 0.078,-0.723 l -0.059,-0.031 c -0.004,0.007 -0.004,0.023 -0.008,0.035 l -2.675,-1.321 c 0.015,-0.023 0.031,-0.043 0.046,-0.066 z"
           style="fill:#483e37;fill-opacity:1;fill-rule:nonzero;stroke:#000000;stroke-width:0.375009;stroke-linecap:butt;stroke-linejoin:miter;stroke-miterlimit:4;stroke-dasharray:none;stroke-opacity:1"
           id="path1217" /></g><g
         id="g1219"
         transform="matrix(-1,0,0,0.999953,824.07304,0)"><path
           d="m 375.156,72.148 c -0.004,0.937 -0.281,1.781 -0.019,2.641 0,0 2.426,7.527 2.984,11.414 0.149,1.039 0.234,2.102 0.09,3.153 -0.059,0.41 -0.379,1.207 -0.379,1.207 l -2.836,-1.36 c 0,0 0.266,-0.664 0.465,-0.972 0.48,-0.723 1.242,-0.743 1.09,-1.836 -0.645,-4.626 -1.543,-7.684 -2.649,-11.282 -0.218,-0.715 -0.836,-1.348 -0.832,-2.094 0.004,-0.738 -0.011,-1.887 0.844,-2.109 0.852,-0.219 1.25,0.203 1.242,1.238 z"
           style="fill:#595959;fill-opacity:1;fill-rule:nonzero;stroke:#000000;stroke-width:0.375009;stroke-linecap:butt;stroke-linejoin:miter;stroke-miterlimit:4;stroke-dasharray:none;stroke-opacity:1"
           id="path1221" /></g><g
         id="g1223"
         transform="matrix(-1,0,0,0.999953,824.07304,0)"><path
           d="m 380.109,56.694 -5.785,7.622 c -2.929,3.859 -1.961,7.719 -1.09,8.398 0.399,0.219 1.071,0.094 1.176,-0.285 0.403,-1.488 0.832,-2.289 2.356,-4.238 l 6.886,-8.782 z"
           style="fill:#595959;fill-opacity:1;fill-rule:nonzero;stroke:#000000;stroke-width:0.375009;stroke-linecap:butt;stroke-linejoin:miter;stroke-miterlimit:4;stroke-dasharray:none;stroke-opacity:1"
           id="path1225" /></g><g
         id="g1227"
         transform="matrix(-1,-0.253259,-0.253595,0.999871,824.07304,0)"><path
           d="m 334.364,156.049 c 0.002,0.457 -0.241,0.829 -0.542,0.827 -0.296,-0.001 -0.542,-0.372 -0.54,-0.828 -10e-4,-0.457 0.242,-0.83 0.54,-0.832 0.3,0.001 0.542,0.371 0.542,0.833 z"
           style="fill:#b4b4b4;fill-opacity:1;fill-rule:nonzero;stroke:#000000;stroke-width:0.363531;stroke-linecap:butt;stroke-linejoin:miter;stroke-miterlimit:4;stroke-dasharray:none;stroke-opacity:1"
           id="path1229" /></g><g
         id="g1231"
         transform="matrix(-1,-0.253259,-0.253595,0.999871,824.07304,0)"><path
           d="m 355.443,156.477 c 0.001,0.457 -0.241,0.829 -0.542,0.828 -0.297,0.002 -0.542,-0.372 -0.54,-0.829 -10e-4,-0.457 0.242,-0.829 0.542,-0.827 0.298,-0.003 0.539,0.37 0.54,0.828 z"
           style="fill:#b4b4b4;fill-opacity:1;fill-rule:nonzero;stroke:#000000;stroke-width:0.363531;stroke-linecap:butt;stroke-linejoin:miter;stroke-miterlimit:4;stroke-dasharray:none;stroke-opacity:1"
           id="path1233" /></g><g
         id="g1235"
         transform="matrix(-1,-0.118707,-0.118872,0.999934,824.07304,0)"><path
           d="m 414.204,109.192 c 10e-4,0.547 -0.365,0.995 -0.817,0.992 -0.45,0.002 -0.815,-0.444 -0.816,-0.991 -0.001,-0.551 0.364,-0.996 0.817,-0.997 0.45,-0.001 0.819,0.445 0.816,0.996 z"
           style="fill:#b4b4b4;fill-opacity:1;fill-rule:nonzero;stroke:#000000;stroke-width:0.372394;stroke-linecap:butt;stroke-linejoin:miter;stroke-miterlimit:4;stroke-dasharray:none;stroke-opacity:1"
           id="path1237" /></g><g
         id="g1239"
         transform="matrix(-1,0,0,0.999953,824.07304,0)"><path
           d="m 375.73,64.859 3.563,-5.063 c 0.355,-0.453 1.254,0.144 0.801,0.722 l -3.735,5.083 c -0.379,0.484 -0.945,-0.336 -0.629,-0.742 z"
           style="fill:#373737;fill-opacity:1;fill-rule:nonzero;stroke:#000000;stroke-width:0.375009;stroke-linecap:butt;stroke-linejoin:miter;stroke-miterlimit:4;stroke-dasharray:none;stroke-opacity:1"
           id="path1241" /></g><g
         id="g1243"
         transform="matrix(-1,0.954369,0.985561,0.969251,824.07304,0)"><path
           d="m 221.11,-165.142 c -0.029,0.134 -0.044,0.269 -0.046,0.405 0.002,1.203 1.163,2.179 2.596,2.179 1.393,-0.002 2.535,-0.92 2.593,-2.086 -0.229,1.028 -1.302,1.774 -2.548,1.775 -1.435,-0.001 -2.598,-0.976 -2.596,-2.179 0,-0.032 -0.001,-0.064 0.001,-0.094 z"
           style="fill:#333333;fill-opacity:1;fill-rule:nonzero;stroke:#000000;stroke-width:0.271352;stroke-linecap:butt;stroke-linejoin:miter;stroke-miterlimit:4;stroke-dasharray:none;stroke-opacity:1"
           id="path1245" /></g><g
         id="g1247"
         transform="matrix(-1,0.954352,0.985561,0.969234,824.07304,0)"><path
           d="m 220.964,-162.651 0.142,0.989 c 0.319,1.112 1.513,1.94 2.936,1.941 1.669,0.001 3.019,-1.135 3.019,-2.533 l -0.15,-0.921 c -0.048,1.37 -1.384,2.459 -3.017,2.459 -1.391,0 -2.603,-0.802 -2.93,-1.935 z"
           style="fill:#333333;fill-opacity:1;fill-rule:nonzero;stroke:#000000;stroke-width:0.271354;stroke-linecap:butt;stroke-linejoin:miter;stroke-miterlimit:4;stroke-dasharray:none;stroke-opacity:1"
           id="path1249" /></g><g
         id="g1251"
         transform="matrix(-1,0.954352,0.985561,0.969234,824.07304,0)"><path
           d="m 221.106,-164.218 c -0.151,0.306 -0.228,0.636 -0.229,0.968 -0.001,1.399 1.352,2.533 3.017,2.534 1.667,-0.001 3.018,-1.134 3.019,-2.533 10e-4,-0.542 -0.207,-1.07 -0.588,-1.504 0.083,0.223 0.129,0.456 0.129,0.694 0.001,1.241 -1.198,2.244 -2.677,2.245 -1.477,0 -2.677,-1.007 -2.675,-2.246 -0.001,-0.052 0.001,-0.106 0.004,-0.158 z"
           style="fill:#363636;fill-opacity:1;fill-rule:nonzero;stroke:#000000;stroke-width:0.271353;stroke-linecap:butt;stroke-linejoin:miter;stroke-miterlimit:4;stroke-dasharray:none;stroke-opacity:1"
           id="path1253" /></g><g
         id="g1255"
         transform="matrix(-1,0.954365,0.985561,0.969247,824.07304,0)"><path
           d="m 221.117,-164.302 c -0.011,0.08 -0.016,0.161 -0.016,0.241 -0.001,1.239 1.198,2.246 2.675,2.247 1.479,-0.001 2.678,-1.005 2.678,-2.245 0,-0.266 -0.057,-0.529 -0.167,-0.78 -0.007,0.064 -0.016,0.13 -0.032,0.193 -0.004,0.04 -0.005,0.078 -0.011,0.12 0,0.008 -0.002,0.018 -0.002,0.026 0,0 0,0 -0.002,0.002 -0.001,0.026 -0.007,0.052 -0.011,0.076 -0.004,0.023 -0.008,0.047 -0.013,0.069 -0.006,0.034 -0.016,0.068 -0.024,0.1 -0.005,0.013 -0.007,0.027 -0.013,0.041 -0.01,0.034 -0.02,0.068 -0.033,0.101 -0.004,0.012 -0.008,0.028 -0.014,0.042 -0.012,0.028 -0.024,0.055 -0.035,0.083 -0.008,0.02 -0.016,0.04 -0.028,0.059 -0.012,0.024 -0.023,0.048 -0.033,0.07 -0.012,0.023 -0.026,0.045 -0.036,0.067 -0.013,0.021 -0.029,0.045 -0.043,0.067 -0.014,0.021 -0.026,0.041 -0.039,0.063 -0.016,0.023 -0.032,0.043 -0.048,0.066 -0.016,0.02 -0.03,0.038 -0.045,0.057 -0.018,0.026 -0.036,0.047 -0.056,0.071 -0.016,0.016 -0.029,0.033 -0.043,0.047 -0.022,0.025 -0.044,0.047 -0.068,0.07 -0.012,0.016 -0.027,0.032 -0.041,0.045 -0.026,0.022 -0.05,0.045 -0.076,0.066 -0.014,0.014 -0.029,0.026 -0.045,0.041 -0.026,0.022 -0.052,0.043 -0.08,0.062 -0.016,0.016 -0.032,0.028 -0.047,0.039 -0.028,0.02 -0.054,0.037 -0.082,0.056 -0.02,0.012 -0.04,0.027 -0.06,0.039 -0.025,0.017 -0.053,0.033 -0.081,0.048 -0.022,0.013 -0.042,0.025 -0.062,0.037 -0.028,0.015 -0.055,0.03 -0.083,0.046 -0.022,0.009 -0.046,0.02 -0.068,0.03 -0.028,0.015 -0.058,0.029 -0.088,0.042 -0.021,0.009 -0.041,0.017 -0.063,0.026 -0.032,0.012 -0.064,0.023 -0.094,0.036 -0.028,0.007 -0.054,0.017 -0.08,0.026 -0.03,0.01 -0.056,0.019 -0.083,0.026 -0.024,0.008 -0.052,0.015 -0.08,0.022 -0.03,0.01 -0.06,0.015 -0.09,0.024 -0.024,0.004 -0.048,0.011 -0.072,0.015 -0.032,0.007 -0.066,0.012 -0.1,0.021 -0.025,0.002 -0.051,0.007 -0.079,0.01 -0.03,0.006 -0.062,0.009 -0.092,0.014 -0.028,0.004 -0.058,0.005 -0.088,0.006 -0.028,0.003 -0.06,0.007 -0.09,0.008 -0.058,0.005 -0.116,0.005 -0.174,0.006 -0.058,0.001 -0.116,-0.003 -0.176,-0.004 -0.048,-0.005 -0.098,-0.008 -0.144,-0.016 -0.01,0.002 -0.022,0.002 -0.032,0 -0.018,-0.003 -0.036,-0.005 -0.052,-0.009 -0.042,-0.003 -0.084,-0.01 -0.126,-0.017 -0.056,-0.01 -0.112,-0.023 -0.17,-0.034 -0.008,-0.005 -0.016,-0.005 -0.024,-0.009 -0.22,-0.053 -0.431,-0.132 -0.628,-0.232 -0.614,-0.314 -1.046,-0.828 -1.191,-1.423 z"
           style="fill:#5a5a5a;fill-opacity:1;fill-rule:nonzero;stroke:#000000;stroke-width:0.271351;stroke-linecap:butt;stroke-linejoin:miter;stroke-miterlimit:4;stroke-dasharray:none;stroke-opacity:1"
           id="path1257" /></g><g
         id="g1259"
         transform="matrix(-1,0.954369,0.985561,0.969251,824.07304,0)"><path
           d="m 226.302,-165.046 c 0,1.201 -1.163,2.177 -2.597,2.177 -1.437,0.001 -2.598,-0.976 -2.598,-2.181 0,-1.201 1.163,-2.177 2.596,-2.177 1.435,0.001 2.599,0.976 2.599,2.181 z"
           style="fill:#5a5a5a;fill-opacity:1;fill-rule:nonzero;stroke:#000000;stroke-width:0.271352;stroke-linecap:butt;stroke-linejoin:miter;stroke-miterlimit:4;stroke-dasharray:none;stroke-opacity:1"
           id="path1261" /></g><g
         id="g1263"
         transform="matrix(-0.891528,0.999272,1,0.890878,824.07304,0)"><path
           d="m 222.778,-189.559 c 0,0.566 -0.55,1.025 -1.226,1.024 -0.677,0.002 -1.224,-0.459 -1.224,-1.025 0,-0.566 0.546,-1.024 1.224,-1.026 0.675,0.001 1.225,0.459 1.226,1.027 z"
           style="fill:#aeaeae;fill-opacity:1;fill-rule:nonzero;stroke:#000000;stroke-width:0.280015;stroke-linecap:butt;stroke-linejoin:miter;stroke-miterlimit:4;stroke-dasharray:none;stroke-opacity:1"
           id="path1265" /></g><g
         id="g1267"
         transform="matrix(-1,0,0,0.999953,824.07304,0)"><path
           d="m 400.801,40.982 -2.887,0.868 -0.359,0.632 0.179,0.723 2.743,-1.32 -0.043,-0.387 z"
           style="fill:#363736;fill-opacity:1;fill-rule:nonzero;stroke:#000000;stroke-width:0.375009;stroke-linecap:butt;stroke-linejoin:round;stroke-miterlimit:4;stroke-dasharray:none;stroke-opacity:1"
           id="path1269" /></g><g
         id="g1271"
         transform="matrix(-1,0,0,0.999953,824.07304,0)"><path
           d="m 394.328,44.885 0.106,0.977 15.226,-8.001 -0.324,-0.98 z"
           style="fill:#373737;fill-opacity:1;fill-rule:nonzero;stroke:#000000;stroke-width:0.375009;stroke-linecap:butt;stroke-linejoin:miter;stroke-miterlimit:4;stroke-dasharray:none;stroke-opacity:1"
           id="path1273" /></g><g
         id="g1275"
         transform="matrix(-1,0,0,0.999953,824.07304,0)"><path
           d="m 409.98,79.078 -0.07,0.019 c 0.008,0.008 0.012,0.02 0.02,0.032 l -1.664,0.32 c 0.164,0.141 0.402,0.356 0.496,0.524 0.461,0.835 -0.395,1.851 -0.844,2.121 l 0.871,-0.262 0.406,-0.129 c 0.469,-0.148 1.559,-1.035 1.231,-1.969 -0.067,-0.199 -0.309,-0.492 -0.446,-0.652 z"
           style="fill:#231f1b;fill-opacity:1;fill-rule:nonzero;stroke:#000000;stroke-width:0.375009;stroke-linecap:butt;stroke-linejoin:miter;stroke-miterlimit:4;stroke-dasharray:none;stroke-opacity:1"
           id="path1277" /></g><g
         id="g1279"
         transform="matrix(-1,0,0,0.999953,824.07304,0)"><path
           d="m 405.184,80.59 c 0.031,0.211 0.097,0.648 0.199,0.832 0.476,0.863 1.582,1.148 2.484,0.664 0.43,-0.231 1.36,-1.285 0.879,-2.149 -0.101,-0.183 -0.391,-0.429 -0.551,-0.566 l -0.066,0.027 c 0.008,0.008 0.016,0.02 0.023,0.028 l -2.941,1.246 c -0.008,-0.028 -0.012,-0.055 -0.02,-0.082 z"
           style="fill:#483e37;fill-opacity:1;fill-rule:nonzero;stroke:#000000;stroke-width:0.375009;stroke-linecap:butt;stroke-linejoin:miter;stroke-miterlimit:4;stroke-dasharray:none;stroke-opacity:1"
           id="path1281" /></g><g
         id="g1283"
         transform="matrix(-1,0,0,0.999953,824.07304,0)"><path
           d="m 415.43,87.004 c -0.098,0.223 -0.153,0.461 -0.164,0.707 -0.055,1.145 0.863,2.102 2.047,2.172 0.57,0.035 2.128,-0.441 2.183,-1.59 0.012,-0.242 -0.023,-0.484 -0.098,-0.719 z"
           style="fill:#483e37;fill-opacity:1;fill-rule:nonzero;stroke:#000000;stroke-width:0.374185;stroke-linecap:butt;stroke-linejoin:miter;stroke-miterlimit:4;stroke-dasharray:none;stroke-opacity:1"
           id="path1285" /></g><g
         id="g1287"
         transform="matrix(-1,0,0,0.999953,824.07304,0)"><path
           d="m 421.164,86.699 -1.851,0.864 0.085,0.011 c 0.075,0.231 0.11,0.473 0.098,0.719 -0.027,0.531 -0.379,0.922 -0.805,1.184 l 1.422,-0.699 c 0.567,-0.243 1.117,-0.688 1.149,-1.36 0.011,-0.246 -0.02,-0.488 -0.098,-0.719 z"
           style="fill:#231f1b;fill-opacity:1;fill-rule:nonzero;stroke:#000000;stroke-width:0.374185;stroke-linecap:butt;stroke-linejoin:miter;stroke-miterlimit:4;stroke-dasharray:2.99345, 1.49673;stroke-dashoffset:0;stroke-opacity:1"
           id="path1289" /></g><g
         id="g1291"
         transform="matrix(-1,0,0,0.999953,824.07304,0)"><path
           d="m 409.609,60.987 -1.902,0.289 c -0.461,1.364 -0.391,2.332 -0.945,4.126 l -0.078,0.011 v 0.02 l 2.254,-0.379 c 0.132,-1.739 0.371,-2.817 0.671,-4.067 z"
           style="fill:#0b170b;fill-opacity:1;fill-rule:nonzero;stroke:#000000;stroke-width:0.375009;stroke-linecap:butt;stroke-linejoin:miter;stroke-miterlimit:4;stroke-dasharray:none;stroke-opacity:1"
           id="path1293" /></g><g
         id="g1295"
         transform="matrix(-1,0,0,0.999953,824.07304,0)"><path
           d="m 407.918,63.8 -2.328,0.312 0.008,0.028 c 0.519,-0.035 0.957,0.422 1.324,1.344 0.473,1.187 0.601,2.359 1.328,3.332 0,0 6.547,8.496 9.152,13.164 0.696,1.247 1.336,2.551 1.711,3.93 0.141,0.528 0.196,1.598 0.2,1.653 l 1.867,-0.871 c 0,0 0.14,-0.934 -0.176,-1.473 -3.344,-5.696 -7.336,-11.122 -10.984,-16.989 -0.391,-0.625 -0.676,-1.278 -0.875,-1.969 -0.223,-1.176 -0.204,-1.762 -1.227,-2.461 z"
           style="fill:#7f7f7f;fill-opacity:1;fill-rule:nonzero;stroke:#000000;stroke-width:0.375009;stroke-linecap:butt;stroke-linejoin:miter;stroke-miterlimit:4;stroke-dasharray:none;stroke-opacity:1"
           id="path1297" /></g><g
         id="g1299"
         transform="matrix(-1,0,0,0.999953,824.07304,0)"><path
           d="m 406.922,65.484 c 0.476,1.183 0.601,2.359 1.332,3.332 0,0 6.543,8.496 9.148,13.161 0.696,1.25 1.336,2.554 1.711,3.933 0.149,0.543 0.2,1.672 0.2,1.672 l -3.848,-0.554 c 0,0 -0.043,-0.95 0.023,-1.415 0.16,-1.109 0.996,-1.441 0.27,-2.754 -3.082,-5.562 -5.645,-9.051 -8.715,-13.133 -0.609,-0.813 -1.617,-1.356 -1.996,-2.297 -0.371,-0.93 -0.977,-2.371 -0.141,-2.996 0.84,-0.625 1.496,-0.254 2.016,1.051 z"
           style="fill:#595959;fill-opacity:1;fill-rule:nonzero;stroke:#000000;stroke-width:0.375009;stroke-linecap:butt;stroke-linejoin:miter;stroke-miterlimit:4;stroke-dasharray:none;stroke-opacity:1"
           id="path1301" /></g><g
         id="g1303"
         transform="matrix(-1,0,0,0.999953,824.07304,0)"><path
           d="m 404.57,55.882 c -1.769,4.117 -1.168,8.773 0.039,10.371 0.25,0.328 1.094,0.586 1.465,0.117 0.36,-0.457 0.481,-0.586 0.785,-3.551 0.192,-1.859 0.524,-2.84 0.957,-3.898 L 413.281,45.158 409.52,42.9 c 0,0 -3.575,9.77 -4.95,12.982 z"
           style="fill:#595959;fill-opacity:1;fill-rule:nonzero;stroke:#000000;stroke-width:0.375009;stroke-linecap:butt;stroke-linejoin:miter;stroke-miterlimit:4;stroke-dasharray:none;stroke-opacity:1"
           id="path1305" /></g><g
         id="g1307"
         transform="matrix(-1,-0.118707,-0.118872,0.999934,824.07304,0)"><path
           d="m 392.799,111.514 c 0.001,0.551 -0.365,0.996 -0.817,0.993 -0.45,10e-4 -0.815,-0.444 -0.816,-0.991 -10e-4,-0.551 0.364,-0.996 0.818,-0.997 0.448,0.002 0.814,0.444 0.815,0.995 z"
           style="fill:#b4b4b4;fill-opacity:1;fill-rule:nonzero;stroke:#000000;stroke-width:0.372394;stroke-linecap:butt;stroke-linejoin:miter;stroke-miterlimit:4;stroke-dasharray:none;stroke-opacity:1"
           id="path1309" /></g><g
         id="g1311"
         transform="matrix(-1,0,0,0.999953,824.07304,0)"><path
           d="m 416.211,44.401 -2.758,0.382 -0.203,0.356 0.031,0.019 -5.465,13.763 c -0.437,1.058 -0.765,2.039 -0.957,3.902 -0.117,1.145 -0.257,2.012 -0.418,2.637 l 0.321,-0.058 c 0.554,-1.794 0.484,-2.762 0.945,-4.126 l 1.902,-0.289 c -0.3,1.254 -0.539,2.336 -0.671,4.082 l 0.363,-0.078 c 0,0 0.414,-3.797 1.265,-5.844 0.852,-2.043 3.024,-7 3.477,-8.016 0.398,-0.898 1.902,-4.883 1.902,-4.883 z"
           style="fill:#373737;fill-opacity:1;fill-rule:nonzero;stroke:#000000;stroke-width:0.375009;stroke-linecap:butt;stroke-linejoin:miter;stroke-miterlimit:4;stroke-dasharray:none;stroke-opacity:1"
           id="path1313" /></g><g
         id="g1315"
         transform="matrix(-0.893003,0.557818,1,0.330016,824.07304,0)"><path
           d="m 206.001,-226.236 c -0.049,0.132 -0.073,0.267 -0.076,0.401 0.003,0.233 0.074,0.456 0.211,0.673 l 1.002,1.242 c 0.584,0.753 1.972,1.273 3.564,1.268 2.133,0.004 3.862,-0.918 3.858,-2.058 0.003,-0.243 -0.078,-0.484 -0.238,-0.712 l -0.989,-1.227 c -0.6,-0.739 -1.974,-1.244 -3.55,-1.244 -1.837,0.004 -3.422,0.694 -3.782,1.657 z"
           style="fill:#333333;fill-opacity:1;fill-rule:nonzero;stroke:#000000;stroke-width:0.406144;stroke-linecap:butt;stroke-linejoin:miter;stroke-miterlimit:4;stroke-dasharray:none;stroke-opacity:1"
           id="path1317" /></g><g
         id="g1319"
         transform="matrix(-0.892856,0.558141,1,0.330164,824.07304,0)"><path
           d="m 203.809,-228.462 c -0.051,0.146 -0.081,0.291 -0.079,0.441 0.001,0.306 0.118,0.606 0.333,0.88 l 1.71,2.019 c 0.662,0.786 2.143,1.335 3.87,1.338 2.339,-0.002 4.238,-1.012 4.237,-2.264 0.002,-0.334 -0.141,-0.661 -0.404,-0.962 l -1.583,-1.867 c -0.633,-0.823 -2.152,-1.402 -3.928,-1.405 -2.022,-10e-4 -3.761,0.763 -4.156,1.82 z"
           style="fill:#333333;fill-opacity:1;fill-rule:nonzero;stroke:#000000;stroke-width:0.406047;stroke-linecap:butt;stroke-linejoin:miter;stroke-miterlimit:4;stroke-dasharray:none;stroke-opacity:1"
           id="path1321" /></g><g
         id="g1323"
         transform="matrix(-0.893127,0.557547,1,0.329891,824.07304,0)"><path
           d="m 203.215,-229.886 c -0.045,0.124 -0.069,0.247 -0.067,0.374 -0.269,0.881 0.144,1.238 0.844,2.304 0.562,0.897 2.153,1.548 4.024,1.547 2.345,0.004 4.245,-1.005 4.243,-2.257 0,-0.308 -0.118,-0.606 -0.338,-0.884 -1.135,-1.256 -2.137,-1.776 -2.571,-2.027 -0.658,-0.368 -1.592,-0.601 -2.609,-0.599 -1.716,-0.001 -3.191,0.646 -3.526,1.542 z"
           style="fill:#5a5a5a;fill-opacity:1;fill-rule:nonzero;stroke:#000000;stroke-width:0.406225;stroke-linecap:butt;stroke-linejoin:miter;stroke-miterlimit:4;stroke-dasharray:none;stroke-opacity:1"
           id="path1325" /></g><g
         id="g1327"
         transform="matrix(-0.893127,0.557547,1,0.329891,824.07304,0)"><path
           d="m 202.603,-230.722 c -0.05,0.12 -0.07,0.25 -0.073,0.372 -0.001,0.179 0.049,0.356 0.142,0.53 l 0.734,1.022 c 0.537,0.714 1.839,1.201 3.332,1.199 1.987,0.005 3.595,-0.852 3.592,-1.913 0,-0.214 -0.064,-0.425 -0.193,-0.622 l -0.721,-0.983 c -0.562,-0.685 -1.836,-1.148 -3.293,-1.149 -1.711,0.003 -3.186,0.648 -3.52,1.544 z"
           style="fill:#333333;fill-opacity:1;fill-rule:nonzero;stroke:#000000;stroke-width:0.406225;stroke-linecap:butt;stroke-linejoin:miter;stroke-miterlimit:4;stroke-dasharray:none;stroke-opacity:1"
           id="path1329" /></g><g
         id="g1331"
         transform="matrix(-0.892919,0.558004,1,0.330101,824.07304,0)"><path
           d="m 200.41,-233.23 c -0.05,0.143 -0.077,0.283 -0.076,0.424 -0.004,0.278 0.101,0.551 0.287,0.804 l 1.281,1.729 c 0.595,0.805 2.065,1.372 3.786,1.373 2.248,0 4.069,-0.972 4.07,-2.17 10e-4,-0.285 -0.105,-0.567 -0.304,-0.823 l -1.21,-1.635 c -0.559,-0.842 -2.069,-1.449 -3.84,-1.448 -1.94,0.002 -3.613,0.735 -3.994,1.746 z"
           style="fill:#333333;fill-opacity:1;fill-rule:nonzero;stroke:#000000;stroke-width:0.406088;stroke-linecap:butt;stroke-linejoin:miter;stroke-miterlimit:4;stroke-dasharray:none;stroke-opacity:1"
           id="path1333" /></g><g
         id="g1335"
         transform="matrix(-0.892969,0.557893,1,0.33005,824.07304,0)"><path
           d="m 199.587,-236.318 c -0.463,1.149 -0.812,2.225 0.872,3.994 0.657,0.676 1.976,1.135 3.502,1.135 2.178,-0.001 3.944,-0.939 3.946,-2.102 -0.003,-0.279 -0.107,-0.552 -0.292,-0.796 -1.562,-2.059 -4.017,-3.341 -5.489,-3.35 -1.234,0.003 -2.296,0.473 -2.539,1.119 z"
           style="fill:#5a5a5a;fill-opacity:1;fill-rule:nonzero;stroke:#000000;stroke-width:0.406123;stroke-linecap:butt;stroke-linejoin:miter;stroke-miterlimit:4;stroke-dasharray:none;stroke-opacity:1"
           id="path1337" /></g><g
         id="g1339"
         transform="matrix(-0.89399,0.555649,1,0.329022,824.07304,0)"><path
           d="m 204.54,-235.678 c 0.004,0.718 -1.084,1.296 -2.421,1.3 -1.341,-0.004 -2.425,-0.582 -2.429,-1.301 0.001,-0.713 1.089,-1.292 2.426,-1.295 1.341,0.003 2.425,0.582 2.424,1.296 z"
           style="fill:#aeaeae;fill-opacity:1;fill-rule:nonzero;stroke:#000000;stroke-width:0.406795;stroke-linecap:butt;stroke-linejoin:miter;stroke-miterlimit:4;stroke-dasharray:none;stroke-opacity:1"
           id="path1341" /></g><g
         id="g1343"
         transform="matrix(-1,0,0,0.999953,824.07304,0)"><path
           d="m 406.348,55.491 2.996,-9.083 c 0.308,-0.941 1.203,0.141 0.98,0.657 l -3.121,9.098 c -0.265,0.613 -0.976,0.176 -0.855,-0.672 z"
           style="fill:#373737;fill-opacity:1;fill-rule:nonzero;stroke:#000000;stroke-width:0.375009;stroke-linecap:butt;stroke-linejoin:miter;stroke-miterlimit:4;stroke-dasharray:none;stroke-opacity:1"
           id="path1345" /></g></g></g></svg>
